<svg xmlns="http://www.w3.org/2000/svg" xmlns:xlink="http://www.w3.org/1999/xlink" width="375" viewBox="0 0 375 127.5" height="127.5" version="1.0"><defs><clipPath id="g"><path d="M 304 38 L 364 38 L 364 61 L 304 61 Z M 304 38"/></clipPath><clipPath id="h"><path d="M 336.519531 90.09375 L 293.664062 52.390625 L 331.371094 9.539062 L 374.222656 47.242188 Z M 336.519531 90.09375"/></clipPath><clipPath id="i"><path d="M 336.519531 90.09375 L 293.664062 52.390625 L 331.371094 9.539062 L 374.222656 47.242188 Z M 336.519531 90.09375"/></clipPath><clipPath id="j"><path d="M 323 20 L 345 20 L 345 80 L 323 80 Z M 323 20"/></clipPath><clipPath id="k"><path d="M 336.519531 90.09375 L 293.664062 52.390625 L 331.371094 9.539062 L 374.222656 47.242188 Z M 336.519531 90.09375"/></clipPath><clipPath id="l"><path d="M 336.519531 90.09375 L 293.664062 52.390625 L 331.371094 9.539062 L 374.222656 47.242188 Z M 336.519531 90.09375"/></clipPath><clipPath id="m"><path d="M 326 40 L 343 40 L 343 60 L 326 60 Z M 326 40"/></clipPath><clipPath id="n"><path d="M 336.519531 90.09375 L 293.664062 52.390625 L 331.371094 9.539062 L 374.222656 47.242188 Z M 336.519531 90.09375"/></clipPath><clipPath id="o"><path d="M 336.519531 90.09375 L 293.664062 52.390625 L 331.371094 9.539062 L 374.222656 47.242188 Z M 336.519531 90.09375"/></clipPath><clipPath id="p"><path d="M 328 72 L 331 72 L 331 75 L 328 75 Z M 328 72"/></clipPath><clipPath id="q"><path d="M 336.519531 90.09375 L 293.664062 52.390625 L 331.371094 9.539062 L 374.222656 47.242188 Z M 336.519531 90.09375"/></clipPath><clipPath id="r"><path d="M 336.519531 90.09375 L 293.664062 52.390625 L 331.371094 9.539062 L 374.222656 47.242188 Z M 336.519531 90.09375"/></clipPath><clipPath id="s"><path d="M 332 69 L 334 69 L 334 71 L 332 71 Z M 332 69"/></clipPath><clipPath id="t"><path d="M 336.519531 90.09375 L 293.664062 52.390625 L 331.371094 9.539062 L 374.222656 47.242188 Z M 336.519531 90.09375"/></clipPath><clipPath id="u"><path d="M 336.519531 90.09375 L 293.664062 52.390625 L 331.371094 9.539062 L 374.222656 47.242188 Z M 336.519531 90.09375"/></clipPath><clipPath id="v"><path d="M 336 71 L 339 71 L 339 73 L 336 73 Z M 336 71"/></clipPath><clipPath id="w"><path d="M 336.519531 90.09375 L 293.664062 52.390625 L 331.371094 9.539062 L 374.222656 47.242188 Z M 336.519531 90.09375"/></clipPath><clipPath id="x"><path d="M 336.519531 90.09375 L 293.664062 52.390625 L 331.371094 9.539062 L 374.222656 47.242188 Z M 336.519531 90.09375"/></clipPath><clipPath id="y"><path d="M 336 65 L 339 65 L 339 67 L 336 67 Z M 336 65"/></clipPath><clipPath id="z"><path d="M 336.519531 90.09375 L 293.664062 52.390625 L 331.371094 9.539062 L 374.222656 47.242188 Z M 336.519531 90.09375"/></clipPath><clipPath id="A"><path d="M 336.519531 90.09375 L 293.664062 52.390625 L 331.371094 9.539062 L 374.222656 47.242188 Z M 336.519531 90.09375"/></clipPath><clipPath id="B"><path d="M 329 64 L 332 64 L 332 67 L 329 67 Z M 329 64"/></clipPath><clipPath id="C"><path d="M 336.519531 90.09375 L 293.664062 52.390625 L 331.371094 9.539062 L 374.222656 47.242188 Z M 336.519531 90.09375"/></clipPath><clipPath id="D"><path d="M 336.519531 90.09375 L 293.664062 52.390625 L 331.371094 9.539062 L 374.222656 47.242188 Z M 336.519531 90.09375"/></clipPath><clipPath id="E"><path d="M 330 33 L 333 33 L 333 36 L 330 36 Z M 330 33"/></clipPath><clipPath id="F"><path d="M 336.519531 90.09375 L 293.664062 52.390625 L 331.371094 9.539062 L 374.222656 47.242188 Z M 336.519531 90.09375"/></clipPath><clipPath id="G"><path d="M 336.519531 90.09375 L 293.664062 52.390625 L 331.371094 9.539062 L 374.222656 47.242188 Z M 336.519531 90.09375"/></clipPath><clipPath id="H"><path d="M 336 34 L 339 34 L 339 37 L 336 37 Z M 336 34"/></clipPath><clipPath id="I"><path d="M 336.519531 90.09375 L 293.664062 52.390625 L 331.371094 9.539062 L 374.222656 47.242188 Z M 336.519531 90.09375"/></clipPath><clipPath id="J"><path d="M 336.519531 90.09375 L 293.664062 52.390625 L 331.371094 9.539062 L 374.222656 47.242188 Z M 336.519531 90.09375"/></clipPath><clipPath id="K"><path d="M 334 30 L 337 30 L 337 32 L 334 32 Z M 334 30"/></clipPath><clipPath id="L"><path d="M 336.519531 90.09375 L 293.664062 52.390625 L 331.371094 9.539062 L 374.222656 47.242188 Z M 336.519531 90.09375"/></clipPath><clipPath id="M"><path d="M 336.519531 90.09375 L 293.664062 52.390625 L 331.371094 9.539062 L 374.222656 47.242188 Z M 336.519531 90.09375"/></clipPath><clipPath id="N"><path d="M 328 28 L 331 28 L 331 31 L 328 31 Z M 328 28"/></clipPath><clipPath id="O"><path d="M 336.519531 90.09375 L 293.664062 52.390625 L 331.371094 9.539062 L 374.222656 47.242188 Z M 336.519531 90.09375"/></clipPath><clipPath id="P"><path d="M 336.519531 90.09375 L 293.664062 52.390625 L 331.371094 9.539062 L 374.222656 47.242188 Z M 336.519531 90.09375"/></clipPath><clipPath id="Q"><path d="M 333 25 L 336 25 L 336 28 L 333 28 Z M 333 25"/></clipPath><clipPath id="R"><path d="M 336.519531 90.09375 L 293.664062 52.390625 L 331.371094 9.539062 L 374.222656 47.242188 Z M 336.519531 90.09375"/></clipPath><clipPath id="S"><path d="M 336.519531 90.09375 L 293.664062 52.390625 L 331.371094 9.539062 L 374.222656 47.242188 Z M 336.519531 90.09375"/></clipPath><clipPath id="T"><path d="M 339 26 L 342 26 L 342 29 L 339 29 Z M 339 26"/></clipPath><clipPath id="U"><path d="M 336.519531 90.09375 L 293.664062 52.390625 L 331.371094 9.539062 L 374.222656 47.242188 Z M 336.519531 90.09375"/></clipPath><clipPath id="V"><path d="M 336.519531 90.09375 L 293.664062 52.390625 L 331.371094 9.539062 L 374.222656 47.242188 Z M 336.519531 90.09375"/></clipPath><g id="a"><path d="M 57.953125 -28.21875 C 57.953125 -22.894531 56.769531 -18.015625 54.40625 -13.578125 C 52.039062 -9.148438 48.773438 -5.644531 44.609375 -3.0625 C 40.453125 -0.476562 35.765625 0.8125 30.546875 0.8125 C 25.335938 0.8125 20.648438 -0.476562 16.484375 -3.0625 C 12.316406 -5.644531 9.0625 -9.148438 6.71875 -13.578125 C 4.382812 -18.015625 3.21875 -22.894531 3.21875 -28.21875 C 3.21875 -33.53125 4.382812 -38.40625 6.71875 -42.84375 C 9.0625 -47.28125 12.316406 -50.785156 16.484375 -53.359375 C 20.648438 -55.941406 25.335938 -57.234375 30.546875 -57.234375 C 35.765625 -57.234375 40.453125 -55.941406 44.609375 -53.359375 C 48.773438 -50.785156 52.039062 -47.28125 54.40625 -42.84375 C 56.769531 -38.40625 57.953125 -33.53125 57.953125 -28.21875 Z M 47.484375 -28.21875 C 47.484375 -31.8125 46.753906 -35.070312 45.296875 -38 C 43.847656 -40.9375 41.832031 -43.265625 39.25 -44.984375 C 36.675781 -46.703125 33.773438 -47.5625 30.546875 -47.5625 C 27.273438 -47.5625 24.359375 -46.710938 21.796875 -45.015625 C 19.242188 -43.328125 17.253906 -41.003906 15.828125 -38.046875 C 14.410156 -35.085938 13.703125 -31.8125 13.703125 -28.21875 C 13.703125 -24.613281 14.410156 -21.332031 15.828125 -18.375 C 17.253906 -15.425781 19.242188 -13.101562 21.796875 -11.40625 C 24.359375 -9.707031 27.273438 -8.859375 30.546875 -8.859375 C 33.773438 -8.859375 36.675781 -9.71875 39.25 -11.4375 C 41.832031 -13.164062 43.847656 -15.492188 45.296875 -18.421875 C 46.753906 -21.347656 47.484375 -24.613281 47.484375 -28.21875 Z M 47.484375 -28.21875"/></g><g id="b"><path d="M 39.90625 -31.28125 C 42.75 -30.144531 45.070312 -28.421875 46.875 -26.109375 C 48.675781 -23.804688 49.578125 -20.828125 49.578125 -17.171875 C 49.578125 -10.773438 47.75 -6.3125 44.09375 -3.78125 C 40.4375 -1.257812 36.082031 0 31.03125 0 L 10.96875 0 C 9.5625 0 8.390625 -0.46875 7.453125 -1.40625 C 6.515625 -2.351562 6.046875 -3.523438 6.046875 -4.921875 L 6.046875 -51.515625 C 6.046875 -52.910156 6.515625 -54.078125 7.453125 -55.015625 C 8.390625 -55.953125 9.5625 -56.421875 10.96875 -56.421875 L 31.28125 -56.421875 C 41.488281 -56.421875 46.59375 -51.640625 46.59375 -42.078125 C 46.59375 -39.660156 46.015625 -37.523438 44.859375 -35.671875 C 43.703125 -33.816406 42.050781 -32.351562 39.90625 -31.28125 Z M 36.109375 -40.296875 C 36.109375 -42.503906 35.554688 -44.160156 34.453125 -45.265625 C 33.359375 -46.367188 31.816406 -46.921875 29.828125 -46.921875 L 16.53125 -46.921875 L 16.53125 -34.34375 L 30.0625 -34.34375 C 31.675781 -34.34375 33.085938 -34.878906 34.296875 -35.953125 C 35.503906 -37.023438 36.109375 -38.472656 36.109375 -40.296875 Z M 31.03125 -9.265625 C 33.5625 -9.265625 35.535156 -9.9375 36.953125 -11.28125 C 38.378906 -12.625 39.09375 -14.585938 39.09375 -17.171875 C 39.09375 -20.335938 38.257812 -22.40625 36.59375 -23.375 C 34.925781 -24.34375 32.882812 -24.828125 30.46875 -24.828125 L 16.53125 -24.828125 L 16.53125 -9.265625 Z M 31.03125 -9.265625"/></g><g id="c"><path d="M 50.296875 -6.28125 C 50.566406 -5.582031 50.703125 -4.941406 50.703125 -4.359375 C 50.703125 -2.953125 50.242188 -1.804688 49.328125 -0.921875 C 48.421875 -0.0351562 47.375 0.40625 46.1875 0.40625 C 45.21875 0.40625 44.34375 0.109375 43.5625 -0.484375 C 42.789062 -1.078125 42.1875 -1.882812 41.75 -2.90625 L 37.5625 -12.65625 L 13.546875 -12.65625 L 9.34375 -2.828125 C 8.96875 -1.804688 8.390625 -1.007812 7.609375 -0.4375 C 6.835938 0.125 5.992188 0.40625 5.078125 0.40625 C 3.679688 0.40625 2.617188 0.03125 1.890625 -0.71875 C 1.171875 -1.476562 0.8125 -2.5 0.8125 -3.78125 C 0.8125 -4.269531 0.890625 -4.78125 1.046875 -5.3125 L 21.125 -53.53125 C 21.550781 -54.601562 22.191406 -55.429688 23.046875 -56.015625 C 23.910156 -56.609375 24.878906 -56.851562 25.953125 -56.75 C 26.921875 -56.75 27.820312 -56.46875 28.65625 -55.90625 C 29.488281 -55.34375 30.09375 -54.550781 30.46875 -53.53125 Z M 17.5 -21.921875 L 33.609375 -21.921875 L 25.46875 -40.78125 Z M 17.5 -21.921875"/></g><g id="d"><path d="M 43.125 -56.421875 C 44.570312 -56.421875 45.753906 -55.988281 46.671875 -55.125 C 47.585938 -54.269531 48.046875 -53.144531 48.046875 -51.75 C 48.046875 -50.351562 47.585938 -49.238281 46.671875 -48.40625 C 45.753906 -47.570312 44.570312 -47.15625 43.125 -47.15625 L 30.46875 -47.15625 L 30.46875 -4.921875 C 30.46875 -3.523438 29.957031 -2.351562 28.9375 -1.40625 C 27.914062 -0.46875 26.65625 0 25.15625 0 C 23.644531 0 22.40625 -0.46875 21.4375 -1.40625 C 20.46875 -2.351562 19.984375 -3.523438 19.984375 -4.921875 L 19.984375 -47.15625 L 7.328125 -47.15625 C 5.878906 -47.15625 4.695312 -47.582031 3.78125 -48.4375 C 2.875 -49.300781 2.421875 -50.429688 2.421875 -51.828125 C 2.421875 -53.171875 2.890625 -54.269531 3.828125 -55.125 C 4.765625 -55.988281 5.929688 -56.421875 7.328125 -56.421875 Z M 43.125 -56.421875"/></g><g id="e"><path d="M 16.125 -4.921875 C 16.125 -3.523438 15.613281 -2.351562 14.59375 -1.40625 C 13.570312 -0.46875 12.390625 0 11.046875 0 C 9.585938 0 8.390625 -0.46875 7.453125 -1.40625 C 6.515625 -2.351562 6.046875 -3.523438 6.046875 -4.921875 L 6.046875 -51.515625 C 6.046875 -52.910156 6.53125 -54.078125 7.5 -55.015625 C 8.46875 -55.953125 9.703125 -56.421875 11.203125 -56.421875 C 12.546875 -56.421875 13.703125 -55.953125 14.671875 -55.015625 C 15.640625 -54.078125 16.125 -52.910156 16.125 -51.515625 Z M 16.125 -4.921875"/></g><g id="f"><path d="M 48.84375 -56.421875 C 50.132812 -56.421875 51.179688 -55.988281 51.984375 -55.125 C 52.796875 -54.269531 53.203125 -53.195312 53.203125 -51.90625 L 53.203125 -4.921875 C 53.203125 -3.523438 52.726562 -2.351562 51.78125 -1.40625 C 50.84375 -0.46875 49.675781 0 48.28125 0 C 47.53125 0 46.789062 -0.117188 46.0625 -0.359375 C 45.34375 -0.597656 44.820312 -0.9375 44.5 -1.375 L 14.90625 -38.9375 L 14.90625 -4.515625 C 14.90625 -3.222656 14.488281 -2.144531 13.65625 -1.28125 C 12.820312 -0.425781 11.738281 0 10.40625 0 C 9.113281 0 8.0625 -0.425781 7.25 -1.28125 C 6.445312 -2.144531 6.046875 -3.222656 6.046875 -4.515625 L 6.046875 -51.515625 C 6.046875 -52.910156 6.515625 -54.078125 7.453125 -55.015625 C 8.390625 -55.953125 9.5625 -56.421875 10.96875 -56.421875 C 11.769531 -56.421875 12.5625 -56.257812 13.34375 -55.9375 C 14.125 -55.613281 14.703125 -55.1875 15.078125 -54.65625 L 44.421875 -17.25 L 44.421875 -51.90625 C 44.421875 -53.195312 44.835938 -54.269531 45.671875 -55.125 C 46.503906 -55.988281 47.5625 -56.421875 48.84375 -56.421875 Z M 48.84375 -56.421875"/></g><g id="W"><path d="M 14.09375 -27.109375 C 15.40625 -27.109375 16.65625 -26.710938 17.84375 -25.921875 C 19.03125 -25.128906 19.984375 -24.066406 20.703125 -22.734375 C 21.429688 -21.410156 21.796875 -19.960938 21.796875 -18.390625 C 21.796875 -16.835938 21.429688 -15.390625 20.703125 -14.046875 C 19.984375 -12.710938 19.03125 -11.648438 17.84375 -10.859375 C 16.65625 -10.066406 15.40625 -9.671875 14.09375 -9.671875 L 7.359375 -9.671875 L 7.359375 -2.359375 C 7.359375 -1.660156 7.148438 -1.09375 6.734375 -0.65625 C 6.328125 -0.21875 5.785156 0 5.109375 0 C 4.460938 0 3.929688 -0.222656 3.515625 -0.671875 C 3.109375 -1.128906 2.90625 -1.691406 2.90625 -2.359375 L 2.90625 -24.734375 C 2.90625 -25.410156 3.128906 -25.972656 3.578125 -26.421875 C 4.035156 -26.878906 4.597656 -27.109375 5.265625 -27.109375 Z M 14.09375 -14.09375 C 14.582031 -14.09375 15.066406 -14.296875 15.546875 -14.703125 C 16.023438 -15.117188 16.410156 -15.65625 16.703125 -16.3125 C 17.003906 -16.976562 17.15625 -17.671875 17.15625 -18.390625 C 17.15625 -19.109375 17.003906 -19.796875 16.703125 -20.453125 C 16.410156 -21.117188 16.023438 -21.648438 15.546875 -22.046875 C 15.066406 -22.453125 14.582031 -22.65625 14.09375 -22.65625 L 7.359375 -22.65625 L 7.359375 -14.09375 Z M 14.09375 -14.09375"/></g><g id="X"><path d="M 22.53125 -27.109375 C 23.257812 -27.109375 23.84375 -26.882812 24.28125 -26.4375 C 24.71875 -26 24.9375 -25.429688 24.9375 -24.734375 L 24.9375 -2.359375 C 24.9375 -1.691406 24.703125 -1.128906 24.234375 -0.671875 C 23.773438 -0.222656 23.179688 0 22.453125 0 C 21.804688 0 21.25 -0.222656 20.78125 -0.671875 C 20.320312 -1.128906 20.09375 -1.691406 20.09375 -2.359375 L 20.09375 -11.390625 L 7.75 -11.390625 L 7.75 -2.359375 C 7.75 -1.691406 7.5 -1.128906 7 -0.671875 C 6.507812 -0.222656 5.941406 0 5.296875 0 C 4.609375 0 4.035156 -0.222656 3.578125 -0.671875 C 3.128906 -1.128906 2.90625 -1.691406 2.90625 -2.359375 L 2.90625 -24.734375 C 2.90625 -25.410156 3.132812 -25.972656 3.59375 -26.421875 C 4.0625 -26.878906 4.65625 -27.109375 5.375 -27.109375 C 6.019531 -27.109375 6.578125 -26.878906 7.046875 -26.421875 C 7.515625 -25.972656 7.75 -25.410156 7.75 -24.734375 L 7.75 -15.84375 L 20.09375 -15.84375 L 20.09375 -24.734375 C 20.09375 -25.410156 20.335938 -25.972656 20.828125 -26.421875 C 21.316406 -26.878906 21.882812 -27.109375 22.53125 -27.109375 Z M 22.53125 -27.109375"/></g><g id="Y"><path d="M 24.15625 -3.015625 C 24.289062 -2.679688 24.359375 -2.375 24.359375 -2.09375 C 24.359375 -1.414062 24.132812 -0.863281 23.6875 -0.4375 C 23.25 -0.0195312 22.75 0.1875 22.1875 0.1875 C 21.71875 0.1875 21.296875 0.046875 20.921875 -0.234375 C 20.546875 -0.515625 20.257812 -0.898438 20.0625 -1.390625 L 18.046875 -6.078125 L 6.5 -6.078125 L 4.484375 -1.359375 C 4.304688 -0.867188 4.03125 -0.488281 3.65625 -0.21875 C 3.28125 0.0507812 2.875 0.1875 2.4375 0.1875 C 1.769531 0.1875 1.257812 0.0078125 0.90625 -0.34375 C 0.5625 -0.707031 0.390625 -1.195312 0.390625 -1.8125 C 0.390625 -2.050781 0.425781 -2.300781 0.5 -2.5625 L 10.140625 -25.703125 C 10.347656 -26.222656 10.65625 -26.625 11.0625 -26.90625 C 11.476562 -27.1875 11.945312 -27.304688 12.46875 -27.265625 C 12.9375 -27.265625 13.367188 -27.125 13.765625 -26.84375 C 14.160156 -26.570312 14.453125 -26.191406 14.640625 -25.703125 Z M 8.40625 -10.53125 L 16.140625 -10.53125 L 12.234375 -19.59375 Z M 8.40625 -10.53125"/></g><g id="Z"><path d="M 24.15625 -3.796875 C 24.488281 -3.585938 24.753906 -3.316406 24.953125 -2.984375 C 25.148438 -2.648438 25.25 -2.300781 25.25 -1.9375 C 25.25 -1.46875 25.09375 -1.039062 24.78125 -0.65625 C 24.394531 -0.195312 23.800781 0.03125 23 0.03125 C 22.375 0.03125 21.804688 -0.109375 21.296875 -0.390625 C 19.429688 -1.441406 18.5 -3.597656 18.5 -6.859375 C 18.5 -7.785156 18.195312 -8.519531 17.59375 -9.0625 C 16.988281 -9.601562 16.117188 -9.875 14.984375 -9.875 L 7.75 -9.875 L 7.75 -2.359375 C 7.75 -1.660156 7.5625 -1.09375 7.1875 -0.65625 C 6.8125 -0.21875 6.3125 0 5.6875 0 C 4.9375 0 4.285156 -0.222656 3.734375 -0.671875 C 3.179688 -1.128906 2.90625 -1.691406 2.90625 -2.359375 L 2.90625 -24.734375 C 2.90625 -25.410156 3.128906 -25.972656 3.578125 -26.421875 C 4.035156 -26.878906 4.597656 -27.109375 5.265625 -27.109375 L 16.421875 -27.109375 C 17.765625 -27.109375 19.03125 -26.742188 20.21875 -26.015625 C 21.40625 -25.296875 22.351562 -24.300781 23.0625 -23.03125 C 23.769531 -21.769531 24.125 -20.351562 24.125 -18.78125 C 24.125 -17.488281 23.773438 -16.226562 23.078125 -15 C 22.378906 -13.78125 21.472656 -12.804688 20.359375 -12.078125 C 21.992188 -10.941406 22.882812 -9.421875 23.03125 -7.515625 C 23.113281 -7.097656 23.15625 -6.695312 23.15625 -6.3125 C 23.257812 -5.507812 23.363281 -4.929688 23.46875 -4.578125 C 23.570312 -4.234375 23.800781 -3.972656 24.15625 -3.796875 Z M 16.21875 -13.859375 C 16.6875 -13.859375 17.140625 -14.078125 17.578125 -14.515625 C 18.015625 -14.953125 18.375 -15.539062 18.65625 -16.28125 C 18.945312 -17.019531 19.09375 -17.8125 19.09375 -18.65625 C 19.09375 -19.382812 18.945312 -20.050781 18.65625 -20.65625 C 18.375 -21.257812 18.015625 -21.742188 17.578125 -22.109375 C 17.140625 -22.472656 16.6875 -22.65625 16.21875 -22.65625 L 7.75 -22.65625 L 7.75 -13.859375 Z M 16.21875 -13.859375"/></g><g id="aa"><path d="M 26.40625 -27.140625 C 27.050781 -27.140625 27.613281 -26.910156 28.09375 -26.453125 C 28.570312 -26.003906 28.8125 -25.445312 28.8125 -24.78125 L 28.8125 -2.359375 C 28.8125 -1.691406 28.585938 -1.128906 28.140625 -0.671875 C 27.703125 -0.222656 27.125 0 26.40625 0 C 25.6875 0 25.097656 -0.21875 24.640625 -0.65625 C 24.191406 -1.09375 23.96875 -1.660156 23.96875 -2.359375 L 23.96875 -17.96875 L 17.578125 -8.203125 C 17.316406 -7.898438 17.019531 -7.648438 16.6875 -7.453125 C 16.351562 -7.253906 16.003906 -7.171875 15.640625 -7.203125 C 15.304688 -7.171875 14.96875 -7.253906 14.625 -7.453125 C 14.289062 -7.648438 14 -7.898438 13.75 -8.203125 L 7.359375 -18.3125 L 7.359375 -2.359375 C 7.359375 -1.660156 7.148438 -1.09375 6.734375 -0.65625 C 6.328125 -0.21875 5.785156 0 5.109375 0 C 4.460938 0 3.929688 -0.222656 3.515625 -0.671875 C 3.109375 -1.128906 2.90625 -1.691406 2.90625 -2.359375 L 2.90625 -24.78125 C 2.90625 -25.425781 3.144531 -25.976562 3.625 -26.4375 C 4.101562 -26.90625 4.675781 -27.140625 5.34375 -27.140625 C 5.726562 -27.140625 6.113281 -27.039062 6.5 -26.84375 C 6.882812 -26.65625 7.179688 -26.40625 7.390625 -26.09375 L 15.84375 -13.125 L 24.515625 -26.09375 C 24.710938 -26.40625 24.984375 -26.65625 25.328125 -26.84375 C 25.679688 -27.039062 26.039062 -27.140625 26.40625 -27.140625 Z M 26.40625 -27.140625"/></g><g id="ab"><path d="M 21.875 -25.78125 C 22.675781 -25.375 23.078125 -24.71875 23.078125 -23.8125 C 23.078125 -23.269531 22.882812 -22.738281 22.5 -22.21875 C 22.082031 -21.675781 21.550781 -21.40625 20.90625 -21.40625 C 20.46875 -21.40625 20.03125 -21.523438 19.59375 -21.765625 C 18.320312 -22.359375 16.953125 -22.65625 15.484375 -22.65625 C 13.679688 -22.65625 12.109375 -22.269531 10.765625 -21.5 C 9.421875 -20.738281 8.382812 -19.664062 7.65625 -18.28125 C 6.9375 -16.90625 6.578125 -15.328125 6.578125 -13.546875 C 6.578125 -10.503906 7.394531 -8.195312 9.03125 -6.625 C 10.675781 -5.050781 12.828125 -4.265625 15.484375 -4.265625 C 17.054688 -4.265625 18.425781 -4.5625 19.59375 -5.15625 C 20.050781 -5.351562 20.460938 -5.453125 20.828125 -5.453125 C 21.503906 -5.453125 22.070312 -5.171875 22.53125 -4.609375 C 22.914062 -4.117188 23.109375 -3.585938 23.109375 -3.015625 C 23.109375 -2.609375 23.003906 -2.234375 22.796875 -1.890625 C 22.597656 -1.554688 22.304688 -1.300781 21.921875 -1.125 C 19.898438 -0.113281 17.753906 0.390625 15.484375 0.390625 C 12.953125 0.390625 10.628906 -0.144531 8.515625 -1.21875 C 6.398438 -2.289062 4.707031 -3.867188 3.4375 -5.953125 C 2.175781 -8.046875 1.546875 -10.578125 1.546875 -13.546875 C 1.546875 -16.179688 2.144531 -18.539062 3.34375 -20.625 C 4.550781 -22.71875 6.210938 -24.351562 8.328125 -25.53125 C 10.441406 -26.707031 12.828125 -27.296875 15.484375 -27.296875 C 17.785156 -27.296875 19.914062 -26.789062 21.875 -25.78125 Z M 21.875 -25.78125"/></g><g id="ac"><path d="M 18.234375 -4.453125 C 18.910156 -4.453125 19.472656 -4.222656 19.921875 -3.765625 C 20.367188 -3.316406 20.59375 -2.796875 20.59375 -2.203125 C 20.59375 -1.554688 20.367188 -1.023438 19.921875 -0.609375 C 19.472656 -0.203125 18.910156 0 18.234375 0 L 5.265625 0 C 4.597656 0 4.035156 -0.222656 3.578125 -0.671875 C 3.128906 -1.128906 2.90625 -1.691406 2.90625 -2.359375 L 2.90625 -24.734375 C 2.90625 -25.410156 3.128906 -25.972656 3.578125 -26.421875 C 4.035156 -26.878906 4.597656 -27.109375 5.265625 -27.109375 L 18.234375 -27.109375 C 18.910156 -27.109375 19.472656 -26.894531 19.921875 -26.46875 C 20.367188 -26.039062 20.59375 -25.488281 20.59375 -24.8125 C 20.59375 -24.164062 20.375 -23.644531 19.9375 -23.25 C 19.5 -22.851562 18.929688 -22.65625 18.234375 -22.65625 L 7.75 -22.65625 L 7.75 -16.0625 L 16.5 -16.0625 C 17.164062 -16.0625 17.722656 -15.847656 18.171875 -15.421875 C 18.628906 -15.003906 18.859375 -14.457031 18.859375 -13.78125 C 18.859375 -13.132812 18.640625 -12.609375 18.203125 -12.203125 C 17.765625 -11.804688 17.195312 -11.609375 16.5 -11.609375 L 7.75 -11.609375 L 7.75 -4.453125 Z M 18.234375 -4.453125"/></g><g id="ad"><path d="M 22.140625 -27.140625 C 22.816406 -27.140625 23.359375 -26.921875 23.765625 -26.484375 C 24.179688 -26.046875 24.390625 -25.476562 24.390625 -24.78125 L 24.390625 -10.765625 C 24.390625 -8.617188 23.9375 -6.71875 23.03125 -5.0625 C 22.132812 -3.414062 20.867188 -2.128906 19.234375 -1.203125 C 17.609375 -0.273438 15.753906 0.1875 13.671875 0.1875 C 11.578125 0.1875 9.707031 -0.273438 8.0625 -1.203125 C 6.425781 -2.128906 5.15625 -3.414062 4.25 -5.0625 C 3.351562 -6.71875 2.90625 -8.617188 2.90625 -10.765625 L 2.90625 -24.78125 C 2.90625 -25.445312 3.132812 -26.003906 3.59375 -26.453125 C 4.0625 -26.910156 4.65625 -27.140625 5.375 -27.140625 C 6 -27.140625 6.539062 -26.910156 7 -26.453125 C 7.46875 -26.003906 7.703125 -25.445312 7.703125 -24.78125 L 7.703125 -10.765625 C 7.703125 -9.523438 7.972656 -8.421875 8.515625 -7.453125 C 9.054688 -6.484375 9.785156 -5.738281 10.703125 -5.21875 C 11.617188 -4.707031 12.609375 -4.453125 13.671875 -4.453125 C 14.773438 -4.453125 15.8125 -4.707031 16.78125 -5.21875 C 17.75 -5.738281 18.523438 -6.484375 19.109375 -7.453125 C 19.691406 -8.421875 19.984375 -9.523438 19.984375 -10.765625 L 19.984375 -24.78125 C 19.984375 -25.476562 20.175781 -26.046875 20.5625 -26.484375 C 20.945312 -26.921875 21.472656 -27.140625 22.140625 -27.140625 Z M 22.140625 -27.140625"/></g><g id="ae"><path d="M 20.71875 -27.109375 C 21.414062 -27.109375 21.984375 -26.898438 22.421875 -26.484375 C 22.859375 -26.066406 23.078125 -25.523438 23.078125 -24.859375 C 23.078125 -24.179688 22.859375 -23.644531 22.421875 -23.25 C 21.984375 -22.851562 21.414062 -22.65625 20.71875 -22.65625 L 14.640625 -22.65625 L 14.640625 -2.359375 C 14.640625 -1.691406 14.394531 -1.128906 13.90625 -0.671875 C 13.414062 -0.222656 12.804688 0 12.078125 0 C 11.359375 0 10.765625 -0.222656 10.296875 -0.671875 C 9.835938 -1.128906 9.609375 -1.691406 9.609375 -2.359375 L 9.609375 -22.65625 L 3.515625 -22.65625 C 2.828125 -22.65625 2.257812 -22.859375 1.8125 -23.265625 C 1.375 -23.679688 1.15625 -24.222656 1.15625 -24.890625 C 1.15625 -25.535156 1.378906 -26.066406 1.828125 -26.484375 C 2.285156 -26.898438 2.847656 -27.109375 3.515625 -27.109375 Z M 20.71875 -27.109375"/></g><g id="af"><path d="M 7.75 -2.359375 C 7.75 -1.691406 7.5 -1.128906 7 -0.671875 C 6.507812 -0.222656 5.941406 0 5.296875 0 C 4.609375 0 4.035156 -0.222656 3.578125 -0.671875 C 3.128906 -1.128906 2.90625 -1.691406 2.90625 -2.359375 L 2.90625 -24.734375 C 2.90625 -25.410156 3.132812 -25.972656 3.59375 -26.421875 C 4.0625 -26.878906 4.65625 -27.109375 5.375 -27.109375 C 6.019531 -27.109375 6.578125 -26.878906 7.046875 -26.421875 C 7.515625 -25.972656 7.75 -25.410156 7.75 -24.734375 Z M 7.75 -2.359375"/></g><g id="ag"><path d="M 17.84375 -4.53125 C 18.519531 -4.53125 19.082031 -4.316406 19.53125 -3.890625 C 19.988281 -3.460938 20.21875 -2.914062 20.21875 -2.25 C 20.21875 -1.601562 19.988281 -1.066406 19.53125 -0.640625 C 19.082031 -0.210938 18.519531 0 17.84375 0 L 5.265625 0 C 4.597656 0 4.035156 -0.222656 3.578125 -0.671875 C 3.128906 -1.128906 2.90625 -1.691406 2.90625 -2.359375 L 2.90625 -24.734375 C 2.90625 -25.410156 3.132812 -25.972656 3.59375 -26.421875 C 4.0625 -26.878906 4.65625 -27.109375 5.375 -27.109375 C 6.019531 -27.109375 6.578125 -26.878906 7.046875 -26.421875 C 7.515625 -25.972656 7.75 -25.410156 7.75 -24.734375 L 7.75 -4.53125 Z M 17.84375 -4.53125"/></g><g id="ah"><path d="M 11.609375 0.390625 C 9.753906 0.390625 8.101562 0.160156 6.65625 -0.296875 C 5.207031 -0.765625 3.851562 -1.554688 2.59375 -2.671875 C 1.894531 -3.285156 1.546875 -3.96875 1.546875 -4.71875 C 1.546875 -5.3125 1.765625 -5.832031 2.203125 -6.28125 C 2.640625 -6.738281 3.171875 -6.96875 3.796875 -6.96875 C 4.285156 -6.96875 4.722656 -6.8125 5.109375 -6.5 C 6.140625 -5.65625 7.144531 -5.035156 8.125 -4.640625 C 9.113281 -4.253906 10.273438 -4.0625 11.609375 -4.0625 C 13.054688 -4.0625 14.300781 -4.382812 15.34375 -5.03125 C 16.394531 -5.675781 16.921875 -6.476562 16.921875 -7.4375 C 16.921875 -8.59375 16.40625 -9.5 15.375 -10.15625 C 14.34375 -10.820312 12.703125 -11.320312 10.453125 -11.65625 C 4.796875 -12.476562 1.96875 -15.109375 1.96875 -19.546875 C 1.96875 -21.179688 2.394531 -22.597656 3.25 -23.796875 C 4.101562 -24.992188 5.265625 -25.90625 6.734375 -26.53125 C 8.203125 -27.164062 9.84375 -27.484375 11.65625 -27.484375 C 13.28125 -27.484375 14.804688 -27.238281 16.234375 -26.75 C 17.671875 -26.257812 18.867188 -25.613281 19.828125 -24.8125 C 20.578125 -24.21875 20.953125 -23.535156 20.953125 -22.765625 C 20.953125 -22.171875 20.726562 -21.644531 20.28125 -21.1875 C 19.84375 -20.738281 19.328125 -20.515625 18.734375 -20.515625 C 18.347656 -20.515625 18 -20.632812 17.6875 -20.875 C 17.019531 -21.414062 16.085938 -21.910156 14.890625 -22.359375 C 13.691406 -22.804688 12.613281 -23.03125 11.65625 -23.03125 C 10.03125 -23.03125 8.769531 -22.726562 7.875 -22.125 C 6.988281 -21.519531 6.546875 -20.726562 6.546875 -19.75 C 6.546875 -18.632812 7.003906 -17.789062 7.921875 -17.21875 C 8.835938 -16.65625 10.273438 -16.195312 12.234375 -15.84375 C 14.453125 -15.445312 16.222656 -14.945312 17.546875 -14.34375 C 18.878906 -13.738281 19.878906 -12.910156 20.546875 -11.859375 C 21.222656 -10.816406 21.5625 -9.429688 21.5625 -7.703125 C 21.5625 -6.078125 21.101562 -4.648438 20.1875 -3.421875 C 19.269531 -2.203125 18.050781 -1.257812 16.53125 -0.59375 C 15.007812 0.0625 13.367188 0.390625 11.609375 0.390625 Z M 11.609375 0.390625"/></g></defs><g fill="#FF4858"><use x="1.946" y="79.384" xmlns:xlink="http://www.w3.org/1999/xlink" xlink:href="#a" xlink:type="simple" xlink:actuate="onLoad" xlink:show="embed"/></g><g fill="#FF4858"><use x="63.113" y="79.384" xmlns:xlink="http://www.w3.org/1999/xlink" xlink:href="#b" xlink:type="simple" xlink:actuate="onLoad" xlink:show="embed"/></g><g fill="#FF4858"><use x="115.898" y="79.384" xmlns:xlink="http://www.w3.org/1999/xlink" xlink:href="#c" xlink:type="simple" xlink:actuate="onLoad" xlink:show="embed"/></g><g fill="#FF4858"><use x="167.394" y="79.384" xmlns:xlink="http://www.w3.org/1999/xlink" xlink:href="#d" xlink:type="simple" xlink:actuate="onLoad" xlink:show="embed"/></g><g fill="#FF4858"><use x="217.843" y="79.384" xmlns:xlink="http://www.w3.org/1999/xlink" xlink:href="#e" xlink:type="simple" xlink:actuate="onLoad" xlink:show="embed"/></g><g fill="#FF4858"><use x="240.005" y="79.384" xmlns:xlink="http://www.w3.org/1999/xlink" xlink:href="#f" xlink:type="simple" xlink:actuate="onLoad" xlink:show="embed"/></g><g clip-path="url(#g)"><g clip-path="url(#h)"><g clip-path="url(#i)"><path fill="#848484" d="M 304.269531 58.328125 L 304.359375 41.015625 C 304.367188 39.863281 305.292969 38.949219 306.445312 38.957031 L 361.554688 39.226562 C 362.703125 39.234375 363.617188 40.164062 363.609375 41.3125 L 363.527344 58.617188 C 363.519531 59.769531 362.59375 60.683594 361.445312 60.675781 L 306.335938 60.40625 C 305.183594 60.398438 304.261719 59.460938 304.269531 58.328125 Z M 304.269531 58.328125"/></g></g></g><g clip-path="url(#j)"><g clip-path="url(#k)"><g clip-path="url(#l)"><path fill="#FF7B87" d="M 325.429688 20.140625 L 342.746094 20.230469 C 343.894531 20.238281 344.8125 21.167969 344.804688 22.316406 L 344.53125 77.425781 C 344.523438 78.574219 343.597656 79.492188 342.449219 79.484375 L 325.140625 79.402344 C 323.992188 79.394531 323.074219 78.464844 323.082031 77.316406 L 323.363281 22.199219 C 323.363281 21.058594 324.296875 20.132812 325.429688 20.140625 Z M 325.429688 20.140625"/></g></g></g><g clip-path="url(#m)"><g clip-path="url(#n)"><g clip-path="url(#o)"><path fill="#F4E4CD" d="M 342.058594 40.992188 L 341.960938 58.726562 C 341.964844 58.984375 341.75 59.195312 341.5 59.1875 L 326.601562 59.109375 C 326.34375 59.109375 326.136719 58.898438 326.144531 58.644531 L 326.230469 40.902344 C 326.230469 40.644531 326.445312 40.4375 326.695312 40.445312 L 341.59375 40.519531 C 341.851562 40.519531 342.058594 40.730469 342.058594 40.992188 Z M 342.058594 40.992188"/></g></g></g><g clip-path="url(#p)"><g clip-path="url(#q)"><g clip-path="url(#r)"><path fill="#F4E4CD" d="M 328.816406 73.117188 C 328.96875 72.941406 329.164062 72.84375 329.394531 72.832031 C 329.628906 72.816406 329.832031 72.886719 330.007812 73.039062 C 330.183594 73.195312 330.277344 73.386719 330.292969 73.621094 C 330.308594 73.851562 330.238281 74.058594 330.085938 74.230469 C 329.929688 74.40625 329.738281 74.503906 329.503906 74.515625 C 329.269531 74.53125 329.066406 74.460938 328.890625 74.308594 C 328.71875 74.152344 328.621094 73.960938 328.605469 73.726562 C 328.59375 73.496094 328.660156 73.289062 328.816406 73.117188 Z M 328.816406 73.117188"/></g></g></g><g clip-path="url(#s)"><g clip-path="url(#t)"><g clip-path="url(#u)"><path fill="#F4E4CD" d="M 332.503906 69.457031 C 332.660156 69.285156 332.851562 69.1875 333.085938 69.171875 C 333.320312 69.160156 333.523438 69.226562 333.699219 69.382812 C 333.871094 69.535156 333.96875 69.730469 333.984375 69.960938 C 333.996094 70.195312 333.929688 70.398438 333.773438 70.574219 C 333.621094 70.75 333.425781 70.84375 333.195312 70.859375 C 332.960938 70.875 332.757812 70.804688 332.582031 70.652344 C 332.40625 70.496094 332.3125 70.304688 332.296875 70.070312 C 332.28125 69.835938 332.351562 69.632812 332.503906 69.457031 Z M 332.503906 69.457031"/></g></g></g><g clip-path="url(#v)"><g clip-path="url(#w)"><g clip-path="url(#x)"><path fill="#F4E4CD" d="M 337.195312 71.351562 C 337.351562 71.175781 337.542969 71.082031 337.777344 71.066406 C 338.007812 71.050781 338.214844 71.121094 338.386719 71.273438 C 338.5625 71.429688 338.660156 71.621094 338.671875 71.855469 C 338.6875 72.085938 338.617188 72.292969 338.464844 72.46875 C 338.3125 72.640625 338.117188 72.738281 337.882812 72.75 C 337.652344 72.765625 337.449219 72.695312 337.273438 72.542969 C 337.097656 72.390625 337.003906 72.195312 336.988281 71.960938 C 336.972656 71.730469 337.042969 71.527344 337.195312 71.351562 Z M 337.195312 71.351562"/></g></g></g><g clip-path="url(#y)"><g clip-path="url(#z)"><g clip-path="url(#A)"><path fill="#F4E4CD" d="M 336.773438 65.523438 C 336.929688 65.347656 337.121094 65.25 337.355469 65.238281 C 337.589844 65.222656 337.792969 65.292969 337.96875 65.445312 C 338.144531 65.597656 338.238281 65.792969 338.253906 66.027344 C 338.265625 66.257812 338.199219 66.460938 338.042969 66.636719 C 337.890625 66.8125 337.695312 66.90625 337.464844 66.921875 C 337.230469 66.9375 337.027344 66.867188 336.851562 66.714844 C 336.675781 66.558594 336.582031 66.367188 336.566406 66.132812 C 336.550781 65.902344 336.621094 65.695312 336.773438 65.523438 Z M 336.773438 65.523438"/></g></g></g><g clip-path="url(#B)"><g clip-path="url(#C)"><g clip-path="url(#D)"><path fill="#F4E4CD" d="M 329.699219 64.921875 C 329.855469 64.746094 330.046875 64.652344 330.28125 64.636719 C 330.511719 64.621094 330.71875 64.691406 330.890625 64.847656 C 331.066406 65 331.164062 65.195312 331.175781 65.425781 C 331.191406 65.660156 331.121094 65.863281 330.96875 66.039062 C 330.8125 66.214844 330.621094 66.308594 330.386719 66.324219 C 330.15625 66.339844 329.953125 66.269531 329.777344 66.113281 C 329.601562 65.960938 329.507812 65.765625 329.492188 65.535156 C 329.476562 65.300781 329.546875 65.097656 329.699219 64.921875 Z M 329.699219 64.921875"/></g></g></g><g clip-path="url(#E)"><g clip-path="url(#F)"><g clip-path="url(#G)"><path fill="#F4E4CD" d="M 330.707031 34.121094 C 330.863281 33.945312 331.054688 33.851562 331.289062 33.835938 C 331.519531 33.820312 331.726562 33.890625 331.902344 34.042969 C 332.074219 34.199219 332.171875 34.390625 332.183594 34.625 C 332.199219 34.859375 332.128906 35.0625 331.976562 35.238281 C 331.824219 35.414062 331.628906 35.507812 331.394531 35.523438 C 331.164062 35.535156 330.960938 35.46875 330.785156 35.3125 C 330.609375 35.160156 330.515625 34.964844 330.5 34.734375 C 330.484375 34.5 330.554688 34.296875 330.707031 34.121094 Z M 330.707031 34.121094"/></g></g></g><g clip-path="url(#H)"><g clip-path="url(#I)"><g clip-path="url(#J)"><path fill="#F4E4CD" d="M 337.203125 35 C 337.355469 34.824219 337.550781 34.730469 337.785156 34.714844 C 338.015625 34.699219 338.21875 34.769531 338.394531 34.925781 C 338.570312 35.078125 338.664062 35.269531 338.679688 35.503906 C 338.695312 35.738281 338.625 35.941406 338.472656 36.117188 C 338.316406 36.292969 338.125 36.386719 337.890625 36.402344 C 337.65625 36.417969 337.453125 36.347656 337.277344 36.191406 C 337.105469 36.039062 337.007812 35.84375 336.992188 35.613281 C 336.980469 35.378906 337.046875 35.175781 337.203125 35 Z M 337.203125 35"/></g></g></g><g clip-path="url(#K)"><g clip-path="url(#L)"><g clip-path="url(#M)"><path fill="#F4E4CD" d="M 334.964844 30.460938 C 335.117188 30.285156 335.3125 30.191406 335.542969 30.175781 C 335.777344 30.160156 335.980469 30.230469 336.15625 30.382812 C 336.332031 30.539062 336.425781 30.730469 336.441406 30.964844 C 336.457031 31.195312 336.386719 31.402344 336.230469 31.574219 C 336.078125 31.75 335.882812 31.847656 335.652344 31.859375 C 335.417969 31.875 335.214844 31.804688 335.039062 31.652344 C 334.863281 31.496094 334.769531 31.304688 334.753906 31.070312 C 334.738281 30.839844 334.808594 30.636719 334.964844 30.460938 Z M 334.964844 30.460938"/></g></g></g><g clip-path="url(#N)"><g clip-path="url(#O)"><g clip-path="url(#P)"><path fill="#F4E4CD" d="M 329.046875 28.734375 C 329.199219 28.558594 329.394531 28.464844 329.625 28.449219 C 329.859375 28.433594 330.0625 28.503906 330.238281 28.660156 C 330.414062 28.8125 330.507812 29.007812 330.523438 29.238281 C 330.539062 29.472656 330.46875 29.675781 330.3125 29.851562 C 330.160156 30.027344 329.964844 30.121094 329.734375 30.136719 C 329.5 30.152344 329.296875 30.082031 329.121094 29.925781 C 328.945312 29.773438 328.851562 29.578125 328.835938 29.347656 C 328.820312 29.113281 328.890625 28.910156 329.046875 28.734375 Z M 329.046875 28.734375"/></g></g></g><g clip-path="url(#Q)"><g clip-path="url(#R)"><g clip-path="url(#S)"><path fill="#F4E4CD" d="M 333.582031 25.65625 C 333.734375 25.480469 333.929688 25.382812 334.160156 25.371094 C 334.394531 25.355469 334.597656 25.425781 334.773438 25.578125 C 334.949219 25.734375 335.042969 25.925781 335.058594 26.160156 C 335.074219 26.390625 335.003906 26.59375 334.847656 26.769531 C 334.695312 26.945312 334.5 27.039062 334.269531 27.054688 C 334.035156 27.070312 333.832031 27 333.65625 26.847656 C 333.480469 26.691406 333.386719 26.5 333.371094 26.265625 C 333.355469 26.035156 333.425781 25.828125 333.582031 25.65625 Z M 333.582031 25.65625"/></g></g></g><g clip-path="url(#T)"><g clip-path="url(#U)"><g clip-path="url(#V)"><path fill="#F4E4CD" d="M 339.796875 27.09375 C 339.949219 26.917969 340.144531 26.824219 340.375 26.808594 C 340.609375 26.792969 340.8125 26.863281 340.988281 27.015625 C 341.164062 27.171875 341.257812 27.363281 341.273438 27.597656 C 341.289062 27.832031 341.21875 28.035156 341.0625 28.210938 C 340.910156 28.382812 340.714844 28.480469 340.484375 28.496094 C 340.25 28.507812 340.046875 28.441406 339.871094 28.285156 C 339.695312 28.132812 339.601562 27.9375 339.585938 27.707031 C 339.570312 27.472656 339.640625 27.269531 339.796875 27.09375 Z M 339.796875 27.09375"/></g></g></g><g fill="#F4E4CD"><use x="3.072" y="116.601" xmlns:xlink="http://www.w3.org/1999/xlink" xlink:href="#W" xlink:type="simple" xlink:actuate="onLoad" xlink:show="embed"/></g><g fill="#F4E4CD"><use x="26.417" y="116.601" xmlns:xlink="http://www.w3.org/1999/xlink" xlink:href="#X" xlink:type="simple" xlink:actuate="onLoad" xlink:show="embed"/></g><g fill="#F4E4CD"><use x="54.253" y="116.601" xmlns:xlink="http://www.w3.org/1999/xlink" xlink:href="#Y" xlink:type="simple" xlink:actuate="onLoad" xlink:show="embed"/></g><g fill="#F4E4CD"><use x="78.992" y="116.601" xmlns:xlink="http://www.w3.org/1999/xlink" xlink:href="#Z" xlink:type="simple" xlink:actuate="onLoad" xlink:show="embed"/></g><g fill="#F4E4CD"><use x="105.59" y="116.601" xmlns:xlink="http://www.w3.org/1999/xlink" xlink:href="#aa" xlink:type="simple" xlink:actuate="onLoad" xlink:show="embed"/></g><g fill="#F4E4CD"><use x="137.297" y="116.601" xmlns:xlink="http://www.w3.org/1999/xlink" xlink:href="#Y" xlink:type="simple" xlink:actuate="onLoad" xlink:show="embed"/></g><g fill="#F4E4CD"><use x="162.037" y="116.601" xmlns:xlink="http://www.w3.org/1999/xlink" xlink:href="#ab" xlink:type="simple" xlink:actuate="onLoad" xlink:show="embed"/></g><g fill="#F4E4CD"><use x="186.311" y="116.601" xmlns:xlink="http://www.w3.org/1999/xlink" xlink:href="#ac" xlink:type="simple" xlink:actuate="onLoad" xlink:show="embed"/></g><g fill="#F4E4CD"><use x="208.456" y="116.601" xmlns:xlink="http://www.w3.org/1999/xlink" xlink:href="#ad" xlink:type="simple" xlink:actuate="onLoad" xlink:show="embed"/></g><g fill="#F4E4CD"><use x="235.75" y="116.601" xmlns:xlink="http://www.w3.org/1999/xlink" xlink:href="#ae" xlink:type="simple" xlink:actuate="onLoad" xlink:show="embed"/></g><g fill="#F4E4CD"><use x="259.986" y="116.601" xmlns:xlink="http://www.w3.org/1999/xlink" xlink:href="#af" xlink:type="simple" xlink:actuate="onLoad" xlink:show="embed"/></g><g fill="#F4E4CD"><use x="270.633" y="116.601" xmlns:xlink="http://www.w3.org/1999/xlink" xlink:href="#ab" xlink:type="simple" xlink:actuate="onLoad" xlink:show="embed"/></g><g fill="#F4E4CD"><use x="294.907" y="116.601" xmlns:xlink="http://www.w3.org/1999/xlink" xlink:href="#Y" xlink:type="simple" xlink:actuate="onLoad" xlink:show="embed"/></g><g fill="#F4E4CD"><use x="319.646" y="116.601" xmlns:xlink="http://www.w3.org/1999/xlink" xlink:href="#ag" xlink:type="simple" xlink:actuate="onLoad" xlink:show="embed"/></g><g fill="#F4E4CD"><use x="341.404" y="116.601" xmlns:xlink="http://www.w3.org/1999/xlink" xlink:href="#ah" xlink:type="simple" xlink:actuate="onLoad" xlink:show="embed"/></g></svg>