<svg xmlns="http://www.w3.org/2000/svg" width="375" viewBox="0 0 375 375" height="375" version="1.0"><defs><clipPath id="a"><path d="M 13 123 L 362 123 L 362 251 L 13 251 Z M 13 123"/></clipPath><clipPath id="b"><path d="M 202.570312 423.296875 L -48.5625 202.335938 L 172.398438 -48.792969 L 423.53125 172.167969 Z M 202.570312 423.296875"/></clipPath><clipPath id="c"><path d="M 202.570312 423.296875 L -48.5625 202.335938 L 172.398438 -48.792969 L 423.53125 172.167969 Z M 202.570312 423.296875"/></clipPath><clipPath id="d"><path d="M 123 13 L 252 13 L 252 362 L 123 362 Z M 123 13"/></clipPath><clipPath id="e"><path d="M 202.570312 423.296875 L -48.5625 202.335938 L 172.398438 -48.792969 L 423.53125 172.167969 Z M 202.570312 423.296875"/></clipPath><clipPath id="f"><path d="M 202.570312 423.296875 L -48.5625 202.335938 L 172.398438 -48.792969 L 423.53125 172.167969 Z M 202.570312 423.296875"/></clipPath><clipPath id="g"><path d="M 141 132 L 236 132 L 236 243 L 141 243 Z M 141 132"/></clipPath><clipPath id="h"><path d="M 202.570312 423.296875 L -48.5625 202.335938 L 172.398438 -48.792969 L 423.53125 172.167969 Z M 202.570312 423.296875"/></clipPath><clipPath id="i"><path d="M 202.570312 423.296875 L -48.5625 202.335938 L 172.398438 -48.792969 L 423.53125 172.167969 Z M 202.570312 423.296875"/></clipPath><clipPath id="j"><path d="M 156 322 L 167 322 L 167 333 L 156 333 Z M 156 322"/></clipPath><clipPath id="k"><path d="M 202.570312 423.296875 L -48.5625 202.335938 L 172.398438 -48.792969 L 423.53125 172.167969 Z M 202.570312 423.296875"/></clipPath><clipPath id="l"><path d="M 202.570312 423.296875 L -48.5625 202.335938 L 172.398438 -48.792969 L 423.53125 172.167969 Z M 202.570312 423.296875"/></clipPath><clipPath id="m"><path d="M 177 300 L 188 300 L 188 311 L 177 311 Z M 177 300"/></clipPath><clipPath id="n"><path d="M 202.570312 423.296875 L -48.5625 202.335938 L 172.398438 -48.792969 L 423.53125 172.167969 Z M 202.570312 423.296875"/></clipPath><clipPath id="o"><path d="M 202.570312 423.296875 L -48.5625 202.335938 L 172.398438 -48.792969 L 423.53125 172.167969 Z M 202.570312 423.296875"/></clipPath><clipPath id="p"><path d="M 205 311 L 216 311 L 216 322 L 205 322 Z M 205 311"/></clipPath><clipPath id="q"><path d="M 202.570312 423.296875 L -48.5625 202.335938 L 172.398438 -48.792969 L 423.53125 172.167969 Z M 202.570312 423.296875"/></clipPath><clipPath id="r"><path d="M 202.570312 423.296875 L -48.5625 202.335938 L 172.398438 -48.792969 L 423.53125 172.167969 Z M 202.570312 423.296875"/></clipPath><clipPath id="s"><path d="M 202 277 L 213 277 L 213 288 L 202 288 Z M 202 277"/></clipPath><clipPath id="t"><path d="M 202.570312 423.296875 L -48.5625 202.335938 L 172.398438 -48.792969 L 423.53125 172.167969 Z M 202.570312 423.296875"/></clipPath><clipPath id="u"><path d="M 202.570312 423.296875 L -48.5625 202.335938 L 172.398438 -48.792969 L 423.53125 172.167969 Z M 202.570312 423.296875"/></clipPath><clipPath id="v"><path d="M 161 274 L 172 274 L 172 284 L 161 284 Z M 161 274"/></clipPath><clipPath id="w"><path d="M 202.570312 423.296875 L -48.5625 202.335938 L 172.398438 -48.792969 L 423.53125 172.167969 Z M 202.570312 423.296875"/></clipPath><clipPath id="x"><path d="M 202.570312 423.296875 L -48.5625 202.335938 L 172.398438 -48.792969 L 423.53125 172.167969 Z M 202.570312 423.296875"/></clipPath><clipPath id="y"><path d="M 167 93 L 178 93 L 178 104 L 167 104 Z M 167 93"/></clipPath><clipPath id="z"><path d="M 202.570312 423.296875 L -48.5625 202.335938 L 172.398438 -48.792969 L 423.53125 172.167969 Z M 202.570312 423.296875"/></clipPath><clipPath id="A"><path d="M 202.570312 423.296875 L -48.5625 202.335938 L 172.398438 -48.792969 L 423.53125 172.167969 Z M 202.570312 423.296875"/></clipPath><clipPath id="B"><path d="M 205 98 L 216 98 L 216 109 L 205 109 Z M 205 98"/></clipPath><clipPath id="C"><path d="M 202.570312 423.296875 L -48.5625 202.335938 L 172.398438 -48.792969 L 423.53125 172.167969 Z M 202.570312 423.296875"/></clipPath><clipPath id="D"><path d="M 202.570312 423.296875 L -48.5625 202.335938 L 172.398438 -48.792969 L 423.53125 172.167969 Z M 202.570312 423.296875"/></clipPath><clipPath id="E"><path d="M 192 72 L 203 72 L 203 83 L 192 83 Z M 192 72"/></clipPath><clipPath id="F"><path d="M 202.570312 423.296875 L -48.5625 202.335938 L 172.398438 -48.792969 L 423.53125 172.167969 Z M 202.570312 423.296875"/></clipPath><clipPath id="G"><path d="M 202.570312 423.296875 L -48.5625 202.335938 L 172.398438 -48.792969 L 423.53125 172.167969 Z M 202.570312 423.296875"/></clipPath><clipPath id="H"><path d="M 157 62 L 168 62 L 168 72 L 157 72 Z M 157 62"/></clipPath><clipPath id="I"><path d="M 202.570312 423.296875 L -48.5625 202.335938 L 172.398438 -48.792969 L 423.53125 172.167969 Z M 202.570312 423.296875"/></clipPath><clipPath id="J"><path d="M 202.570312 423.296875 L -48.5625 202.335938 L 172.398438 -48.792969 L 423.53125 172.167969 Z M 202.570312 423.296875"/></clipPath><clipPath id="K"><path d="M 184 43 L 195 43 L 195 54 L 184 54 Z M 184 43"/></clipPath><clipPath id="L"><path d="M 202.570312 423.296875 L -48.5625 202.335938 L 172.398438 -48.792969 L 423.53125 172.167969 Z M 202.570312 423.296875"/></clipPath><clipPath id="M"><path d="M 202.570312 423.296875 L -48.5625 202.335938 L 172.398438 -48.792969 L 423.53125 172.167969 Z M 202.570312 423.296875"/></clipPath><clipPath id="N"><path d="M 220 52 L 231 52 L 231 63 L 220 63 Z M 220 52"/></clipPath><clipPath id="O"><path d="M 202.570312 423.296875 L -48.5625 202.335938 L 172.398438 -48.792969 L 423.53125 172.167969 Z M 202.570312 423.296875"/></clipPath><clipPath id="P"><path d="M 202.570312 423.296875 L -48.5625 202.335938 L 172.398438 -48.792969 L 423.53125 172.167969 Z M 202.570312 423.296875"/></clipPath></defs><g clip-path="url(#a)"><g clip-path="url(#b)"><g clip-path="url(#c)"><path fill="#848484" d="M 13.578125 237.140625 L 14.109375 135.667969 C 14.152344 128.933594 19.59375 123.558594 26.328125 123.605469 L 349.28125 125.195312 C 356.015625 125.242188 361.390625 130.679688 361.34375 137.414062 L 360.859375 238.835938 C 360.816406 245.570312 355.375 250.945312 348.640625 250.898438 L 25.683594 249.308594 C 18.953125 249.261719 13.527344 243.78125 13.578125 237.140625 Z M 13.578125 237.140625"/></g></g></g><g clip-path="url(#d)"><g clip-path="url(#e)"><g clip-path="url(#f)"><path fill="#FF7B87" d="M 137.597656 13.347656 L 239.070312 13.878906 C 245.804688 13.921875 251.175781 19.359375 251.132812 26.09375 L 249.539062 349.050781 C 249.496094 355.785156 244.054688 361.15625 237.320312 361.113281 L 135.898438 360.625 C 129.164062 360.582031 123.792969 355.144531 123.835938 348.410156 L 125.472656 25.402344 C 125.472656 18.71875 130.957031 13.296875 137.597656 13.347656 Z M 137.597656 13.347656"/></g></g></g><g clip-path="url(#g)"><g clip-path="url(#h)"><g clip-path="url(#i)"><path fill="#F4E4CD" d="M 235.042969 135.53125 L 234.476562 239.472656 C 234.480469 240.988281 233.230469 242.207031 231.757812 242.15625 L 144.464844 241.714844 C 142.945312 241.71875 141.730469 240.46875 141.777344 238.996094 L 142.289062 135.011719 C 142.289062 133.496094 143.539062 132.277344 145.007812 132.324219 L 232.304688 132.765625 C 233.820312 132.765625 235.039062 134.015625 235.042969 135.53125 Z M 235.042969 135.53125"/></g></g></g><g clip-path="url(#j)"><g clip-path="url(#k)"><g clip-path="url(#l)"><path fill="#F4E4CD" d="M 157.433594 323.792969 C 157.648438 323.550781 157.886719 323.328125 158.144531 323.132812 C 158.402344 322.933594 158.679688 322.761719 158.96875 322.621094 C 159.261719 322.476562 159.5625 322.363281 159.878906 322.28125 C 160.191406 322.195312 160.511719 322.144531 160.835938 322.125 C 161.160156 322.101562 161.484375 322.113281 161.804688 322.15625 C 162.128906 322.199219 162.441406 322.273438 162.75 322.378906 C 163.058594 322.484375 163.351562 322.617188 163.632812 322.78125 C 163.914062 322.945312 164.179688 323.132812 164.421875 323.347656 C 164.667969 323.5625 164.886719 323.796875 165.085938 324.054688 C 165.28125 324.316406 165.453125 324.589844 165.59375 324.882812 C 165.738281 325.171875 165.851562 325.476562 165.9375 325.789062 C 166.019531 326.105469 166.070312 326.421875 166.09375 326.75 C 166.113281 327.074219 166.101562 327.394531 166.058594 327.71875 C 166.015625 328.039062 165.941406 328.355469 165.835938 328.664062 C 165.730469 328.96875 165.597656 329.265625 165.433594 329.546875 C 165.273438 329.828125 165.082031 330.089844 164.867188 330.335938 C 164.652344 330.578125 164.417969 330.800781 164.160156 330.996094 C 163.902344 331.195312 163.625 331.363281 163.335938 331.507812 C 163.042969 331.652344 162.738281 331.765625 162.425781 331.847656 C 162.109375 331.929688 161.792969 331.984375 161.46875 332.003906 C 161.144531 332.023438 160.820312 332.015625 160.496094 331.972656 C 160.175781 331.929688 159.859375 331.855469 159.554688 331.75 C 159.246094 331.644531 158.949219 331.511719 158.667969 331.347656 C 158.386719 331.183594 158.125 330.996094 157.882812 330.78125 C 157.636719 330.566406 157.417969 330.328125 157.21875 330.070312 C 157.023438 329.8125 156.851562 329.539062 156.707031 329.246094 C 156.566406 328.953125 156.453125 328.652344 156.367188 328.335938 C 156.285156 328.023438 156.230469 327.703125 156.210938 327.378906 C 156.191406 327.054688 156.203125 326.730469 156.246094 326.410156 C 156.289062 326.085938 156.363281 325.773438 156.464844 325.464844 C 156.570312 325.15625 156.707031 324.863281 156.867188 324.582031 C 157.03125 324.300781 157.21875 324.039062 157.433594 323.792969 Z M 157.433594 323.792969"/></g></g></g><g clip-path="url(#m)"><g clip-path="url(#n)"><g clip-path="url(#o)"><path fill="#F4E4CD" d="M 179.054688 302.359375 C 179.269531 302.117188 179.507812 301.894531 179.765625 301.699219 C 180.023438 301.5 180.296875 301.332031 180.589844 301.1875 C 180.882812 301.042969 181.183594 300.929688 181.5 300.847656 C 181.8125 300.761719 182.132812 300.710938 182.457031 300.691406 C 182.78125 300.671875 183.105469 300.679688 183.425781 300.722656 C 183.75 300.765625 184.0625 300.839844 184.371094 300.945312 C 184.679688 301.050781 184.972656 301.183594 185.253906 301.347656 C 185.535156 301.511719 185.796875 301.699219 186.042969 301.914062 C 186.285156 302.128906 186.507812 302.367188 186.703125 302.625 C 186.902344 302.882812 187.074219 303.15625 187.214844 303.449219 C 187.359375 303.742188 187.472656 304.042969 187.554688 304.359375 C 187.640625 304.671875 187.691406 304.992188 187.710938 305.316406 C 187.734375 305.640625 187.722656 305.964844 187.679688 306.285156 C 187.636719 306.609375 187.5625 306.921875 187.457031 307.230469 C 187.351562 307.539062 187.21875 307.832031 187.054688 308.113281 C 186.890625 308.394531 186.703125 308.65625 186.488281 308.902344 C 186.273438 309.144531 186.039062 309.367188 185.78125 309.5625 C 185.519531 309.761719 185.246094 309.929688 184.953125 310.074219 C 184.664062 310.21875 184.359375 310.332031 184.046875 310.414062 C 183.730469 310.5 183.414062 310.550781 183.085938 310.570312 C 182.761719 310.59375 182.441406 310.582031 182.117188 310.539062 C 181.796875 310.496094 181.480469 310.421875 181.171875 310.316406 C 180.867188 310.210938 180.570312 310.078125 180.289062 309.914062 C 180.007812 309.75 179.746094 309.5625 179.5 309.347656 C 179.257812 309.132812 179.039062 308.898438 178.839844 308.636719 C 178.640625 308.378906 178.472656 308.105469 178.328125 307.8125 C 178.183594 307.523438 178.070312 307.21875 177.988281 306.90625 C 177.90625 306.589844 177.851562 306.269531 177.832031 305.945312 C 177.8125 305.621094 177.820312 305.300781 177.863281 304.976562 C 177.90625 304.65625 177.980469 304.339844 178.085938 304.03125 C 178.191406 303.726562 178.324219 303.429688 178.488281 303.148438 C 178.652344 302.867188 178.839844 302.605469 179.054688 302.359375 Z M 179.054688 302.359375"/></g></g></g><g clip-path="url(#p)"><g clip-path="url(#q)"><g clip-path="url(#r)"><path fill="#F4E4CD" d="M 206.546875 313.449219 C 206.761719 313.207031 206.996094 312.984375 207.253906 312.789062 C 207.515625 312.589844 207.789062 312.421875 208.082031 312.277344 C 208.371094 312.132812 208.675781 312.019531 208.988281 311.9375 C 209.304688 311.851562 209.621094 311.800781 209.945312 311.78125 C 210.273438 311.757812 210.59375 311.769531 210.917969 311.8125 C 211.238281 311.855469 211.554688 311.929688 211.863281 312.035156 C 212.167969 312.140625 212.464844 312.273438 212.746094 312.4375 C 213.027344 312.601562 213.289062 312.789062 213.53125 313.003906 C 213.777344 313.21875 213.996094 313.453125 214.195312 313.714844 C 214.394531 313.972656 214.5625 314.246094 214.707031 314.539062 C 214.851562 314.828125 214.964844 315.132812 215.046875 315.445312 C 215.128906 315.761719 215.183594 316.082031 215.203125 316.40625 C 215.222656 316.730469 215.214844 317.050781 215.171875 317.375 C 215.128906 317.695312 215.054688 318.011719 214.949219 318.320312 C 214.84375 318.628906 214.710938 318.921875 214.546875 319.203125 C 214.382812 319.484375 214.195312 319.746094 213.980469 319.992188 C 213.765625 320.234375 213.527344 320.457031 213.269531 320.652344 C 213.011719 320.851562 212.738281 321.019531 212.445312 321.164062 C 212.152344 321.308594 211.851562 321.421875 211.535156 321.503906 C 211.222656 321.589844 210.902344 321.640625 210.578125 321.660156 C 210.253906 321.679688 209.929688 321.671875 209.609375 321.628906 C 209.285156 321.585938 208.972656 321.511719 208.664062 321.40625 C 208.355469 321.300781 208.0625 321.167969 207.78125 321.003906 C 207.5 320.839844 207.238281 320.652344 206.992188 320.4375 C 206.75 320.222656 206.527344 319.984375 206.332031 319.726562 C 206.132812 319.46875 205.960938 319.195312 205.820312 318.902344 C 205.675781 318.609375 205.5625 318.308594 205.480469 317.992188 C 205.394531 317.679688 205.34375 317.359375 205.324219 317.035156 C 205.300781 316.710938 205.3125 316.386719 205.355469 316.066406 C 205.398438 315.742188 205.472656 315.429688 205.578125 315.121094 C 205.683594 314.8125 205.816406 314.519531 205.980469 314.238281 C 206.140625 313.957031 206.332031 313.695312 206.546875 313.449219 Z M 206.546875 313.449219"/></g></g></g><g clip-path="url(#s)"><g clip-path="url(#t)"><g clip-path="url(#u)"><path fill="#F4E4CD" d="M 204.078125 279.289062 C 204.292969 279.042969 204.53125 278.824219 204.789062 278.625 C 205.046875 278.429688 205.320312 278.257812 205.613281 278.117188 C 205.90625 277.972656 206.207031 277.859375 206.523438 277.773438 C 206.835938 277.691406 207.15625 277.640625 207.480469 277.617188 C 207.804688 277.597656 208.128906 277.609375 208.449219 277.652344 C 208.773438 277.695312 209.085938 277.769531 209.394531 277.875 C 209.703125 277.980469 209.996094 278.113281 210.277344 278.277344 C 210.558594 278.4375 210.820312 278.628906 211.066406 278.84375 C 211.308594 279.058594 211.53125 279.292969 211.726562 279.550781 C 211.925781 279.808594 212.09375 280.085938 212.238281 280.375 C 212.382812 280.667969 212.496094 280.972656 212.578125 281.285156 C 212.664062 281.601562 212.714844 281.917969 212.734375 282.242188 C 212.757812 282.566406 212.746094 282.890625 212.703125 283.214844 C 212.660156 283.535156 212.585938 283.851562 212.480469 284.15625 C 212.375 284.464844 212.242188 284.761719 212.078125 285.042969 C 211.914062 285.324219 211.726562 285.585938 211.511719 285.828125 C 211.296875 286.074219 211.0625 286.292969 210.800781 286.492188 C 210.542969 286.6875 210.269531 286.859375 209.976562 287.003906 C 209.6875 287.144531 209.382812 287.257812 209.070312 287.34375 C 208.753906 287.425781 208.433594 287.480469 208.109375 287.5 C 207.785156 287.519531 207.464844 287.507812 207.140625 287.464844 C 206.820312 287.421875 206.503906 287.347656 206.195312 287.246094 C 205.890625 287.140625 205.59375 287.003906 205.3125 286.84375 C 205.03125 286.679688 204.769531 286.492188 204.523438 286.277344 C 204.28125 286.0625 204.058594 285.824219 203.863281 285.566406 C 203.664062 285.308594 203.496094 285.03125 203.351562 284.742188 C 203.207031 284.449219 203.09375 284.148438 203.011719 283.832031 C 202.929688 283.519531 202.875 283.199219 202.855469 282.875 C 202.835938 282.550781 202.84375 282.226562 202.886719 281.90625 C 202.929688 281.582031 203.003906 281.269531 203.109375 280.960938 C 203.214844 280.652344 203.347656 280.359375 203.511719 280.078125 C 203.675781 279.796875 203.863281 279.53125 204.078125 279.289062 Z M 204.078125 279.289062"/></g></g></g><g clip-path="url(#v)"><g clip-path="url(#w)"><g clip-path="url(#x)"><path fill="#F4E4CD" d="M 162.613281 275.777344 C 162.828125 275.53125 163.066406 275.3125 163.324219 275.113281 C 163.582031 274.917969 163.855469 274.746094 164.148438 274.601562 C 164.441406 274.460938 164.742188 274.347656 165.058594 274.261719 C 165.371094 274.179688 165.691406 274.125 166.015625 274.105469 C 166.339844 274.085938 166.664062 274.097656 166.984375 274.140625 C 167.308594 274.183594 167.621094 274.257812 167.929688 274.359375 C 168.238281 274.464844 168.53125 274.601562 168.8125 274.761719 C 169.09375 274.925781 169.355469 275.113281 169.601562 275.328125 C 169.84375 275.542969 170.066406 275.78125 170.265625 276.039062 C 170.460938 276.296875 170.632812 276.574219 170.773438 276.863281 C 170.917969 277.15625 171.03125 277.457031 171.113281 277.773438 C 171.199219 278.085938 171.25 278.40625 171.273438 278.730469 C 171.292969 279.054688 171.28125 279.378906 171.238281 279.699219 C 171.195312 280.023438 171.121094 280.339844 171.015625 280.644531 C 170.910156 280.953125 170.777344 281.246094 170.613281 281.527344 C 170.453125 281.808594 170.261719 282.074219 170.046875 282.316406 C 169.832031 282.5625 169.597656 282.78125 169.339844 282.980469 C 169.082031 283.175781 168.804688 283.347656 168.511719 283.488281 C 168.222656 283.632812 167.917969 283.746094 167.605469 283.832031 C 167.289062 283.914062 166.972656 283.964844 166.648438 283.988281 C 166.324219 284.007812 166 283.996094 165.675781 283.953125 C 165.355469 283.910156 165.039062 283.835938 164.730469 283.730469 C 164.425781 283.625 164.128906 283.492188 163.847656 283.328125 C 163.566406 283.167969 163.304688 282.976562 163.0625 282.761719 C 162.816406 282.546875 162.597656 282.3125 162.398438 282.054688 C 162.203125 281.796875 162.03125 281.519531 161.886719 281.230469 C 161.746094 280.9375 161.628906 280.632812 161.546875 280.320312 C 161.464844 280.007812 161.410156 279.6875 161.390625 279.363281 C 161.371094 279.039062 161.382812 278.714844 161.425781 278.390625 C 161.46875 278.070312 161.539062 277.753906 161.644531 277.449219 C 161.75 277.140625 161.886719 276.84375 162.046875 276.5625 C 162.210938 276.28125 162.398438 276.019531 162.613281 275.777344 Z M 162.613281 275.777344"/></g></g></g><g clip-path="url(#y)"><g clip-path="url(#z)"><g clip-path="url(#A)"><path fill="#F4E4CD" d="M 168.523438 95.269531 C 168.738281 95.027344 168.972656 94.804688 169.234375 94.609375 C 169.492188 94.410156 169.765625 94.242188 170.058594 94.097656 C 170.347656 93.953125 170.652344 93.839844 170.964844 93.757812 C 171.28125 93.675781 171.601562 93.621094 171.925781 93.601562 C 172.25 93.582031 172.570312 93.589844 172.894531 93.632812 C 173.214844 93.675781 173.53125 93.75 173.839844 93.855469 C 174.144531 93.960938 174.441406 94.09375 174.722656 94.257812 C 175.003906 94.421875 175.265625 94.609375 175.511719 94.824219 C 175.753906 95.039062 175.976562 95.277344 176.171875 95.535156 C 176.371094 95.792969 176.539062 96.066406 176.683594 96.359375 C 176.828125 96.652344 176.941406 96.953125 177.023438 97.269531 C 177.109375 97.582031 177.160156 97.902344 177.179688 98.226562 C 177.199219 98.550781 177.191406 98.875 177.148438 99.195312 C 177.105469 99.519531 177.03125 99.832031 176.925781 100.140625 C 176.820312 100.449219 176.6875 100.742188 176.523438 101.023438 C 176.359375 101.304688 176.171875 101.566406 175.957031 101.8125 C 175.742188 102.054688 175.503906 102.277344 175.246094 102.472656 C 174.988281 102.671875 174.714844 102.84375 174.421875 102.984375 C 174.128906 103.128906 173.828125 103.242188 173.511719 103.324219 C 173.199219 103.410156 172.878906 103.460938 172.554688 103.480469 C 172.230469 103.503906 171.90625 103.492188 171.585938 103.449219 C 171.261719 103.40625 170.949219 103.332031 170.640625 103.226562 C 170.332031 103.121094 170.039062 102.988281 169.757812 102.824219 C 169.476562 102.660156 169.214844 102.472656 168.96875 102.257812 C 168.726562 102.042969 168.503906 101.808594 168.308594 101.550781 C 168.109375 101.289062 167.941406 101.015625 167.796875 100.722656 C 167.652344 100.433594 167.539062 100.128906 167.457031 99.816406 C 167.371094 99.5 167.320312 99.183594 167.300781 98.855469 C 167.277344 98.53125 167.289062 98.210938 167.332031 97.886719 C 167.375 97.566406 167.449219 97.25 167.554688 96.941406 C 167.660156 96.636719 167.792969 96.339844 167.957031 96.058594 C 168.121094 95.777344 168.308594 95.515625 168.523438 95.269531 Z M 168.523438 95.269531"/></g></g></g><g clip-path="url(#B)"><g clip-path="url(#C)"><g clip-path="url(#D)"><path fill="#F4E4CD" d="M 206.585938 100.421875 C 206.800781 100.179688 207.035156 99.957031 207.292969 99.761719 C 207.550781 99.5625 207.828125 99.394531 208.117188 99.25 C 208.410156 99.105469 208.714844 98.992188 209.027344 98.910156 C 209.339844 98.824219 209.660156 98.773438 209.984375 98.753906 C 210.308594 98.730469 210.632812 98.742188 210.957031 98.785156 C 211.277344 98.828125 211.59375 98.902344 211.898438 99.007812 C 212.207031 99.113281 212.503906 99.246094 212.785156 99.410156 C 213.066406 99.574219 213.328125 99.761719 213.570312 99.976562 C 213.816406 100.191406 214.035156 100.429688 214.234375 100.6875 C 214.429688 100.945312 214.601562 101.21875 214.746094 101.511719 C 214.886719 101.804688 215 102.105469 215.085938 102.421875 C 215.167969 102.734375 215.222656 103.054688 215.242188 103.378906 C 215.261719 103.703125 215.25 104.027344 215.207031 104.347656 C 215.164062 104.671875 215.089844 104.984375 214.988281 105.292969 C 214.882812 105.601562 214.746094 105.894531 214.585938 106.175781 C 214.421875 106.457031 214.234375 106.71875 214.019531 106.964844 C 213.804688 107.207031 213.566406 107.429688 213.308594 107.625 C 213.050781 107.824219 212.773438 107.992188 212.484375 108.136719 C 212.191406 108.28125 211.890625 108.394531 211.574219 108.476562 C 211.261719 108.5625 210.941406 108.613281 210.617188 108.632812 C 210.292969 108.65625 209.96875 108.644531 209.648438 108.601562 C 209.324219 108.558594 209.007812 108.484375 208.703125 108.378906 C 208.394531 108.273438 208.101562 108.140625 207.820312 107.976562 C 207.539062 107.8125 207.273438 107.625 207.03125 107.410156 C 206.785156 107.195312 206.566406 106.960938 206.367188 106.699219 C 206.171875 106.441406 206 106.167969 205.859375 105.875 C 205.714844 105.585938 205.601562 105.28125 205.515625 104.96875 C 205.433594 104.652344 205.382812 104.332031 205.359375 104.007812 C 205.339844 103.683594 205.351562 103.363281 205.394531 103.039062 C 205.4375 102.71875 205.511719 102.402344 205.617188 102.09375 C 205.722656 101.785156 205.855469 101.492188 206.019531 101.210938 C 206.179688 100.929688 206.371094 100.667969 206.585938 100.421875 Z M 206.585938 100.421875"/></g></g></g><g clip-path="url(#E)"><g clip-path="url(#F)"><g clip-path="url(#G)"><path fill="#F4E4CD" d="M 193.460938 73.816406 C 193.675781 73.574219 193.910156 73.351562 194.167969 73.152344 C 194.429688 72.957031 194.703125 72.785156 194.996094 72.644531 C 195.285156 72.5 195.589844 72.386719 195.902344 72.300781 C 196.21875 72.21875 196.535156 72.167969 196.859375 72.144531 C 197.1875 72.125 197.507812 72.136719 197.832031 72.179688 C 198.152344 72.222656 198.46875 72.296875 198.777344 72.402344 C 199.082031 72.507812 199.378906 72.640625 199.660156 72.804688 C 199.941406 72.964844 200.203125 73.15625 200.445312 73.371094 C 200.691406 73.585938 200.910156 73.820312 201.109375 74.078125 C 201.308594 74.335938 201.476562 74.613281 201.621094 74.902344 C 201.765625 75.195312 201.878906 75.5 201.960938 75.8125 C 202.042969 76.128906 202.097656 76.445312 202.117188 76.769531 C 202.136719 77.09375 202.128906 77.417969 202.085938 77.742188 C 202.042969 78.0625 201.96875 78.378906 201.863281 78.6875 C 201.757812 78.992188 201.625 79.289062 201.460938 79.570312 C 201.296875 79.851562 201.109375 80.113281 200.894531 80.355469 C 200.679688 80.601562 200.441406 80.820312 200.183594 81.019531 C 199.925781 81.214844 199.652344 81.386719 199.359375 81.53125 C 199.066406 81.671875 198.765625 81.785156 198.449219 81.871094 C 198.136719 81.953125 197.816406 82.007812 197.492188 82.027344 C 197.167969 82.046875 196.84375 82.035156 196.523438 81.992188 C 196.199219 81.949219 195.886719 81.875 195.578125 81.773438 C 195.269531 81.667969 194.976562 81.53125 194.695312 81.371094 C 194.414062 81.207031 194.152344 81.019531 193.90625 80.804688 C 193.664062 80.589844 193.441406 80.351562 193.246094 80.09375 C 193.046875 79.835938 192.875 79.5625 192.734375 79.269531 C 192.589844 78.976562 192.476562 78.675781 192.394531 78.359375 C 192.308594 78.046875 192.257812 77.726562 192.238281 77.402344 C 192.214844 77.078125 192.226562 76.753906 192.269531 76.433594 C 192.3125 76.109375 192.386719 75.796875 192.492188 75.488281 C 192.597656 75.179688 192.730469 74.886719 192.894531 74.605469 C 193.054688 74.324219 193.246094 74.058594 193.460938 73.816406 Z M 193.460938 73.816406"/></g></g></g><g clip-path="url(#H)"><g clip-path="url(#I)"><g clip-path="url(#J)"><path fill="#F4E4CD" d="M 158.78125 63.707031 C 158.996094 63.464844 159.230469 63.242188 159.488281 63.046875 C 159.746094 62.847656 160.023438 62.679688 160.3125 62.535156 C 160.605469 62.390625 160.910156 62.277344 161.222656 62.195312 C 161.535156 62.109375 161.855469 62.058594 162.179688 62.039062 C 162.503906 62.015625 162.828125 62.027344 163.152344 62.070312 C 163.472656 62.113281 163.789062 62.1875 164.09375 62.292969 C 164.402344 62.398438 164.699219 62.53125 164.980469 62.695312 C 165.261719 62.859375 165.523438 63.046875 165.765625 63.261719 C 166.011719 63.476562 166.230469 63.710938 166.429688 63.972656 C 166.625 64.230469 166.796875 64.503906 166.941406 64.796875 C 167.082031 65.085938 167.195312 65.390625 167.28125 65.703125 C 167.363281 66.019531 167.417969 66.339844 167.4375 66.664062 C 167.457031 66.988281 167.445312 67.308594 167.402344 67.632812 C 167.359375 67.953125 167.285156 68.269531 167.179688 68.578125 C 167.078125 68.886719 166.941406 69.179688 166.78125 69.460938 C 166.617188 69.742188 166.429688 70.003906 166.214844 70.25 C 166 70.492188 165.761719 70.714844 165.503906 70.910156 C 165.246094 71.109375 164.96875 71.277344 164.679688 71.421875 C 164.386719 71.566406 164.082031 71.679688 163.769531 71.761719 C 163.457031 71.847656 163.136719 71.898438 162.8125 71.917969 C 162.488281 71.941406 162.164062 71.929688 161.84375 71.886719 C 161.519531 71.84375 161.203125 71.769531 160.898438 71.664062 C 160.589844 71.558594 160.296875 71.425781 160.015625 71.261719 C 159.734375 71.097656 159.46875 70.910156 159.226562 70.695312 C 158.980469 70.480469 158.761719 70.242188 158.5625 69.984375 C 158.367188 69.726562 158.195312 69.453125 158.050781 69.160156 C 157.910156 68.867188 157.796875 68.566406 157.710938 68.25 C 157.628906 67.9375 157.578125 67.617188 157.554688 67.292969 C 157.535156 66.96875 157.546875 66.644531 157.589844 66.324219 C 157.632812 66.003906 157.707031 65.6875 157.8125 65.378906 C 157.917969 65.070312 158.050781 64.777344 158.214844 64.496094 C 158.375 64.214844 158.566406 63.953125 158.78125 63.707031 Z M 158.78125 63.707031"/></g></g></g><g clip-path="url(#K)"><g clip-path="url(#L)"><g clip-path="url(#M)"><path fill="#F4E4CD" d="M 185.355469 45.65625 C 185.570312 45.410156 185.808594 45.191406 186.066406 44.992188 C 186.324219 44.796875 186.597656 44.625 186.890625 44.484375 C 187.183594 44.339844 187.484375 44.226562 187.800781 44.140625 C 188.113281 44.058594 188.433594 44.007812 188.757812 43.984375 C 189.082031 43.964844 189.40625 43.976562 189.726562 44.019531 C 190.050781 44.0625 190.363281 44.136719 190.671875 44.242188 C 190.980469 44.347656 191.273438 44.480469 191.554688 44.644531 C 191.835938 44.804688 192.097656 44.996094 192.34375 45.210938 C 192.585938 45.425781 192.808594 45.660156 193.003906 45.917969 C 193.203125 46.175781 193.375 46.453125 193.515625 46.742188 C 193.660156 47.035156 193.773438 47.339844 193.855469 47.652344 C 193.941406 47.96875 193.992188 48.285156 194.011719 48.609375 C 194.035156 48.933594 194.023438 49.257812 193.980469 49.582031 C 193.9375 49.902344 193.863281 50.21875 193.757812 50.523438 C 193.652344 50.832031 193.519531 51.128906 193.355469 51.410156 C 193.191406 51.691406 193.003906 51.953125 192.789062 52.195312 C 192.574219 52.441406 192.339844 52.660156 192.082031 52.859375 C 191.820312 53.054688 191.546875 53.226562 191.253906 53.371094 C 190.964844 53.511719 190.660156 53.625 190.347656 53.710938 C 190.03125 53.792969 189.714844 53.847656 189.386719 53.867188 C 189.0625 53.886719 188.742188 53.875 188.417969 53.832031 C 188.097656 53.789062 187.78125 53.714844 187.472656 53.613281 C 187.167969 53.507812 186.871094 53.371094 186.589844 53.210938 C 186.308594 53.046875 186.046875 52.859375 185.800781 52.644531 C 185.558594 52.429688 185.335938 52.191406 185.140625 51.933594 C 184.941406 51.675781 184.773438 51.402344 184.628906 51.109375 C 184.484375 50.816406 184.371094 50.515625 184.289062 50.199219 C 184.207031 49.886719 184.152344 49.566406 184.132812 49.242188 C 184.113281 48.917969 184.121094 48.59375 184.164062 48.273438 C 184.207031 47.949219 184.28125 47.636719 184.386719 47.328125 C 184.492188 47.019531 184.625 46.726562 184.789062 46.445312 C 184.953125 46.164062 185.140625 45.898438 185.355469 45.65625 Z M 185.355469 45.65625"/></g></g></g><g clip-path="url(#N)"><g clip-path="url(#O)"><g clip-path="url(#P)"><path fill="#F4E4CD" d="M 221.777344 54.089844 C 221.992188 53.84375 222.230469 53.625 222.488281 53.425781 C 222.746094 53.230469 223.019531 53.058594 223.3125 52.914062 C 223.605469 52.773438 223.90625 52.660156 224.222656 52.574219 C 224.535156 52.492188 224.855469 52.4375 225.179688 52.417969 C 225.503906 52.398438 225.828125 52.410156 226.148438 52.453125 C 226.472656 52.496094 226.785156 52.570312 227.09375 52.671875 C 227.402344 52.777344 227.695312 52.914062 227.976562 53.074219 C 228.257812 53.238281 228.519531 53.425781 228.765625 53.640625 C 229.007812 53.855469 229.230469 54.09375 229.425781 54.351562 C 229.625 54.609375 229.796875 54.886719 229.9375 55.175781 C 230.082031 55.46875 230.195312 55.769531 230.277344 56.085938 C 230.363281 56.398438 230.414062 56.71875 230.433594 57.042969 C 230.457031 57.367188 230.445312 57.691406 230.402344 58.011719 C 230.359375 58.335938 230.285156 58.648438 230.179688 58.957031 C 230.074219 59.265625 229.941406 59.558594 229.777344 59.839844 C 229.617188 60.121094 229.425781 60.386719 229.210938 60.628906 C 228.996094 60.875 228.761719 61.09375 228.503906 61.292969 C 228.242188 61.488281 227.96875 61.660156 227.675781 61.800781 C 227.386719 61.945312 227.082031 62.058594 226.769531 62.144531 C 226.453125 62.226562 226.136719 62.277344 225.8125 62.300781 C 225.484375 62.320312 225.164062 62.308594 224.839844 62.265625 C 224.519531 62.222656 224.203125 62.148438 223.894531 62.042969 C 223.589844 61.9375 223.292969 61.804688 223.011719 61.640625 C 222.730469 61.480469 222.46875 61.289062 222.226562 61.074219 C 221.980469 60.859375 221.761719 60.625 221.5625 60.367188 C 221.363281 60.109375 221.195312 59.832031 221.050781 59.542969 C 220.90625 59.25 220.792969 58.945312 220.710938 58.632812 C 220.628906 58.320312 220.574219 58 220.554688 57.675781 C 220.535156 57.351562 220.542969 57.027344 220.585938 56.703125 C 220.628906 56.382812 220.703125 56.066406 220.808594 55.761719 C 220.914062 55.453125 221.046875 55.15625 221.210938 54.875 C 221.375 54.59375 221.5625 54.332031 221.777344 54.089844 Z M 221.777344 54.089844"/></g></g></g></svg>