<svg xmlns="http://www.w3.org/2000/svg" xmlns:xlink="http://www.w3.org/1999/xlink" width="375" viewBox="0 0 375 112.5" height="112.5" version="1.0"><defs><clipPath id="g"><path d="M 304 45 L 364 45 L 364 67 L 304 67 Z M 304 45"/></clipPath><clipPath id="h"><path d="M 336.441406 96.28125 L 293.609375 58.597656 L 331.292969 15.769531 L 374.125 53.453125 Z M 336.441406 96.28125"/></clipPath><clipPath id="i"><path d="M 336.441406 96.28125 L 293.609375 58.597656 L 331.292969 15.769531 L 374.125 53.453125 Z M 336.441406 96.28125"/></clipPath><clipPath id="j"><path d="M 323 26 L 345 26 L 345 86 L 323 86 Z M 323 26"/></clipPath><clipPath id="k"><path d="M 336.441406 96.28125 L 293.609375 58.597656 L 331.292969 15.769531 L 374.125 53.453125 Z M 336.441406 96.28125"/></clipPath><clipPath id="l"><path d="M 336.441406 96.28125 L 293.609375 58.597656 L 331.292969 15.769531 L 374.125 53.453125 Z M 336.441406 96.28125"/></clipPath><clipPath id="m"><path d="M 326 46 L 342 46 L 342 66 L 326 66 Z M 326 46"/></clipPath><clipPath id="n"><path d="M 336.441406 96.28125 L 293.609375 58.597656 L 331.292969 15.769531 L 374.125 53.453125 Z M 336.441406 96.28125"/></clipPath><clipPath id="o"><path d="M 336.441406 96.28125 L 293.609375 58.597656 L 331.292969 15.769531 L 374.125 53.453125 Z M 336.441406 96.28125"/></clipPath><clipPath id="p"><path d="M 328 79 L 331 79 L 331 81 L 328 81 Z M 328 79"/></clipPath><clipPath id="q"><path d="M 336.441406 96.28125 L 293.609375 58.597656 L 331.292969 15.769531 L 374.125 53.453125 Z M 336.441406 96.28125"/></clipPath><clipPath id="r"><path d="M 336.441406 96.28125 L 293.609375 58.597656 L 331.292969 15.769531 L 374.125 53.453125 Z M 336.441406 96.28125"/></clipPath><clipPath id="s"><path d="M 332 75 L 334 75 L 334 78 L 332 78 Z M 332 75"/></clipPath><clipPath id="t"><path d="M 336.441406 96.28125 L 293.609375 58.597656 L 331.292969 15.769531 L 374.125 53.453125 Z M 336.441406 96.28125"/></clipPath><clipPath id="u"><path d="M 336.441406 96.28125 L 293.609375 58.597656 L 331.292969 15.769531 L 374.125 53.453125 Z M 336.441406 96.28125"/></clipPath><clipPath id="v"><path d="M 336 77 L 339 77 L 339 79 L 336 79 Z M 336 77"/></clipPath><clipPath id="w"><path d="M 336.441406 96.28125 L 293.609375 58.597656 L 331.292969 15.769531 L 374.125 53.453125 Z M 336.441406 96.28125"/></clipPath><clipPath id="x"><path d="M 336.441406 96.28125 L 293.609375 58.597656 L 331.292969 15.769531 L 374.125 53.453125 Z M 336.441406 96.28125"/></clipPath><clipPath id="y"><path d="M 336 71 L 339 71 L 339 74 L 336 74 Z M 336 71"/></clipPath><clipPath id="z"><path d="M 336.441406 96.28125 L 293.609375 58.597656 L 331.292969 15.769531 L 374.125 53.453125 Z M 336.441406 96.28125"/></clipPath><clipPath id="A"><path d="M 336.441406 96.28125 L 293.609375 58.597656 L 331.292969 15.769531 L 374.125 53.453125 Z M 336.441406 96.28125"/></clipPath><clipPath id="B"><path d="M 329 70 L 332 70 L 332 73 L 329 73 Z M 329 70"/></clipPath><clipPath id="C"><path d="M 336.441406 96.28125 L 293.609375 58.597656 L 331.292969 15.769531 L 374.125 53.453125 Z M 336.441406 96.28125"/></clipPath><clipPath id="D"><path d="M 336.441406 96.28125 L 293.609375 58.597656 L 331.292969 15.769531 L 374.125 53.453125 Z M 336.441406 96.28125"/></clipPath><clipPath id="E"><path d="M 330 40 L 333 40 L 333 42 L 330 42 Z M 330 40"/></clipPath><clipPath id="F"><path d="M 336.441406 96.28125 L 293.609375 58.597656 L 331.292969 15.769531 L 374.125 53.453125 Z M 336.441406 96.28125"/></clipPath><clipPath id="G"><path d="M 336.441406 96.28125 L 293.609375 58.597656 L 331.292969 15.769531 L 374.125 53.453125 Z M 336.441406 96.28125"/></clipPath><clipPath id="H"><path d="M 336 40 L 339 40 L 339 43 L 336 43 Z M 336 40"/></clipPath><clipPath id="I"><path d="M 336.441406 96.28125 L 293.609375 58.597656 L 331.292969 15.769531 L 374.125 53.453125 Z M 336.441406 96.28125"/></clipPath><clipPath id="J"><path d="M 336.441406 96.28125 L 293.609375 58.597656 L 331.292969 15.769531 L 374.125 53.453125 Z M 336.441406 96.28125"/></clipPath><clipPath id="K"><path d="M 334 36 L 337 36 L 337 39 L 334 39 Z M 334 36"/></clipPath><clipPath id="L"><path d="M 336.441406 96.28125 L 293.609375 58.597656 L 331.292969 15.769531 L 374.125 53.453125 Z M 336.441406 96.28125"/></clipPath><clipPath id="M"><path d="M 336.441406 96.28125 L 293.609375 58.597656 L 331.292969 15.769531 L 374.125 53.453125 Z M 336.441406 96.28125"/></clipPath><clipPath id="N"><path d="M 328 34 L 331 34 L 331 37 L 328 37 Z M 328 34"/></clipPath><clipPath id="O"><path d="M 336.441406 96.28125 L 293.609375 58.597656 L 331.292969 15.769531 L 374.125 53.453125 Z M 336.441406 96.28125"/></clipPath><clipPath id="P"><path d="M 336.441406 96.28125 L 293.609375 58.597656 L 331.292969 15.769531 L 374.125 53.453125 Z M 336.441406 96.28125"/></clipPath><clipPath id="Q"><path d="M 333 31 L 335 31 L 335 34 L 333 34 Z M 333 31"/></clipPath><clipPath id="R"><path d="M 336.441406 96.28125 L 293.609375 58.597656 L 331.292969 15.769531 L 374.125 53.453125 Z M 336.441406 96.28125"/></clipPath><clipPath id="S"><path d="M 336.441406 96.28125 L 293.609375 58.597656 L 331.292969 15.769531 L 374.125 53.453125 Z M 336.441406 96.28125"/></clipPath><clipPath id="T"><path d="M 339 33 L 342 33 L 342 35 L 339 35 Z M 339 33"/></clipPath><clipPath id="U"><path d="M 336.441406 96.28125 L 293.609375 58.597656 L 331.292969 15.769531 L 374.125 53.453125 Z M 336.441406 96.28125"/></clipPath><clipPath id="V"><path d="M 336.441406 96.28125 L 293.609375 58.597656 L 331.292969 15.769531 L 374.125 53.453125 Z M 336.441406 96.28125"/></clipPath><g id="a"><path d="M 57.921875 -28.203125 C 57.921875 -22.878906 56.738281 -18 54.375 -13.5625 C 52.007812 -9.132812 48.742188 -5.628906 44.578125 -3.046875 C 40.421875 -0.472656 35.738281 0.8125 30.53125 0.8125 C 25.320312 0.8125 20.632812 -0.472656 16.46875 -3.046875 C 12.3125 -5.628906 9.0625 -9.132812 6.71875 -13.5625 C 4.382812 -18 3.21875 -22.878906 3.21875 -28.203125 C 3.21875 -33.515625 4.382812 -38.382812 6.71875 -42.8125 C 9.0625 -47.25 12.3125 -50.753906 16.46875 -53.328125 C 20.632812 -55.910156 25.320312 -57.203125 30.53125 -57.203125 C 35.738281 -57.203125 40.421875 -55.910156 44.578125 -53.328125 C 48.742188 -50.753906 52.007812 -47.25 54.375 -42.8125 C 56.738281 -38.382812 57.921875 -33.515625 57.921875 -28.203125 Z M 47.453125 -28.203125 C 47.453125 -31.796875 46.722656 -35.054688 45.265625 -37.984375 C 43.816406 -40.910156 41.800781 -43.234375 39.21875 -44.953125 C 36.644531 -46.671875 33.75 -47.53125 30.53125 -47.53125 C 27.257812 -47.53125 24.347656 -46.679688 21.796875 -44.984375 C 19.242188 -43.296875 17.253906 -40.972656 15.828125 -38.015625 C 14.410156 -35.066406 13.703125 -31.796875 13.703125 -28.203125 C 13.703125 -24.597656 14.410156 -21.316406 15.828125 -18.359375 C 17.253906 -15.410156 19.242188 -13.085938 21.796875 -11.390625 C 24.347656 -9.703125 27.257812 -8.859375 30.53125 -8.859375 C 33.75 -8.859375 36.644531 -9.71875 39.21875 -11.4375 C 41.800781 -13.15625 43.816406 -15.476562 45.265625 -18.40625 C 46.722656 -21.332031 47.453125 -24.597656 47.453125 -28.203125 Z M 47.453125 -28.203125"/></g><g id="b"><path d="M 39.875 -31.265625 C 42.71875 -30.128906 45.039062 -28.40625 46.84375 -26.09375 C 48.644531 -23.789062 49.546875 -20.8125 49.546875 -17.15625 C 49.546875 -10.769531 47.71875 -6.3125 44.0625 -3.78125 C 40.414062 -1.257812 36.066406 0 31.015625 0 L 10.953125 0 C 9.554688 0 8.390625 -0.46875 7.453125 -1.40625 C 6.515625 -2.34375 6.046875 -3.515625 6.046875 -4.921875 L 6.046875 -51.484375 C 6.046875 -52.878906 6.515625 -54.046875 7.453125 -54.984375 C 8.390625 -55.921875 9.554688 -56.390625 10.953125 -56.390625 L 31.265625 -56.390625 C 41.460938 -56.390625 46.5625 -51.609375 46.5625 -42.046875 C 46.5625 -39.628906 45.984375 -37.492188 44.828125 -35.640625 C 43.671875 -33.796875 42.019531 -32.335938 39.875 -31.265625 Z M 36.09375 -40.28125 C 36.09375 -42.476562 35.539062 -44.128906 34.4375 -45.234375 C 33.332031 -46.335938 31.789062 -46.890625 29.8125 -46.890625 L 16.515625 -46.890625 L 16.515625 -34.3125 L 30.046875 -34.3125 C 31.660156 -34.3125 33.070312 -34.847656 34.28125 -35.921875 C 35.488281 -37.003906 36.09375 -38.457031 36.09375 -40.28125 Z M 31.015625 -9.265625 C 33.535156 -9.265625 35.507812 -9.9375 36.9375 -11.28125 C 38.363281 -12.625 39.078125 -14.582031 39.078125 -17.15625 C 39.078125 -20.320312 38.242188 -22.390625 36.578125 -23.359375 C 34.910156 -24.328125 32.867188 -24.8125 30.453125 -24.8125 L 16.515625 -24.8125 L 16.515625 -9.265625 Z M 31.015625 -9.265625"/></g><g id="c"><path d="M 50.265625 -6.28125 C 50.535156 -5.582031 50.671875 -4.9375 50.671875 -4.34375 C 50.671875 -2.945312 50.210938 -1.804688 49.296875 -0.921875 C 48.390625 -0.0351562 47.34375 0.40625 46.15625 0.40625 C 45.195312 0.40625 44.328125 0.109375 43.546875 -0.484375 C 42.765625 -1.078125 42.160156 -1.882812 41.734375 -2.90625 L 37.546875 -12.640625 L 13.53125 -12.640625 L 9.34375 -2.8125 C 8.96875 -1.789062 8.390625 -1 7.609375 -0.4375 C 6.828125 0.125 5.984375 0.40625 5.078125 0.40625 C 3.679688 0.40625 2.617188 0.03125 1.890625 -0.71875 C 1.171875 -1.476562 0.8125 -2.5 0.8125 -3.78125 C 0.8125 -4.269531 0.890625 -4.78125 1.046875 -5.3125 L 21.109375 -53.5 C 21.535156 -54.570312 22.175781 -55.398438 23.03125 -55.984375 C 23.894531 -56.578125 24.863281 -56.820312 25.9375 -56.71875 C 26.90625 -56.71875 27.804688 -56.4375 28.640625 -55.875 C 29.472656 -55.3125 30.078125 -54.519531 30.453125 -53.5 Z M 17.484375 -21.90625 L 33.59375 -21.90625 L 25.453125 -40.765625 Z M 17.484375 -21.90625"/></g><g id="d"><path d="M 43.09375 -56.390625 C 44.550781 -56.390625 45.734375 -55.957031 46.640625 -55.09375 C 47.554688 -54.238281 48.015625 -53.113281 48.015625 -51.71875 C 48.015625 -50.320312 47.554688 -49.207031 46.640625 -48.375 C 45.734375 -47.539062 44.550781 -47.125 43.09375 -47.125 L 30.453125 -47.125 L 30.453125 -4.921875 C 30.453125 -3.515625 29.941406 -2.34375 28.921875 -1.40625 C 27.898438 -0.46875 26.640625 0 25.140625 0 C 23.628906 0 22.390625 -0.46875 21.421875 -1.40625 C 20.460938 -2.34375 19.984375 -3.515625 19.984375 -4.921875 L 19.984375 -47.125 L 7.328125 -47.125 C 5.878906 -47.125 4.695312 -47.550781 3.78125 -48.40625 C 2.875 -49.269531 2.421875 -50.398438 2.421875 -51.796875 C 2.421875 -53.140625 2.890625 -54.238281 3.828125 -55.09375 C 4.765625 -55.957031 5.929688 -56.390625 7.328125 -56.390625 Z M 43.09375 -56.390625"/></g><g id="e"><path d="M 16.109375 -4.921875 C 16.109375 -3.515625 15.597656 -2.34375 14.578125 -1.40625 C 13.554688 -0.46875 12.375 0 11.03125 0 C 9.582031 0 8.390625 -0.46875 7.453125 -1.40625 C 6.515625 -2.34375 6.046875 -3.515625 6.046875 -4.921875 L 6.046875 -51.484375 C 6.046875 -52.878906 6.523438 -54.046875 7.484375 -54.984375 C 8.453125 -55.921875 9.691406 -56.390625 11.203125 -56.390625 C 12.546875 -56.390625 13.695312 -55.921875 14.65625 -54.984375 C 15.625 -54.046875 16.109375 -52.878906 16.109375 -51.484375 Z M 16.109375 -4.921875"/></g><g id="f"><path d="M 48.828125 -56.390625 C 50.109375 -56.390625 51.148438 -55.957031 51.953125 -55.09375 C 52.765625 -54.238281 53.171875 -53.164062 53.171875 -51.875 L 53.171875 -4.921875 C 53.171875 -3.515625 52.703125 -2.34375 51.765625 -1.40625 C 50.828125 -0.46875 49.65625 0 48.25 0 C 47.5 0 46.757812 -0.117188 46.03125 -0.359375 C 45.3125 -0.597656 44.789062 -0.9375 44.46875 -1.375 L 14.90625 -38.90625 L 14.90625 -4.515625 C 14.90625 -3.222656 14.488281 -2.144531 13.65625 -1.28125 C 12.820312 -0.425781 11.734375 0 10.390625 0 C 9.097656 0 8.050781 -0.425781 7.25 -1.28125 C 6.445312 -2.144531 6.046875 -3.222656 6.046875 -4.515625 L 6.046875 -51.484375 C 6.046875 -52.878906 6.515625 -54.046875 7.453125 -54.984375 C 8.390625 -55.921875 9.554688 -56.390625 10.953125 -56.390625 C 11.765625 -56.390625 12.554688 -56.226562 13.328125 -55.90625 C 14.109375 -55.582031 14.6875 -55.15625 15.0625 -54.625 L 44.390625 -17.234375 L 44.390625 -51.875 C 44.390625 -53.164062 44.804688 -54.238281 45.640625 -55.09375 C 46.472656 -55.957031 47.535156 -56.390625 48.828125 -56.390625 Z M 48.828125 -56.390625"/></g></defs><g fill="#FF4858"><use x="2.043" y="85.578" xmlns:xlink="http://www.w3.org/1999/xlink" xlink:href="#a" xlink:type="simple" xlink:actuate="onLoad" xlink:show="embed"/></g><g fill="#FF4858"><use x="63.177" y="85.578" xmlns:xlink="http://www.w3.org/1999/xlink" xlink:href="#b" xlink:type="simple" xlink:actuate="onLoad" xlink:show="embed"/></g><g fill="#FF4858"><use x="115.935" y="85.578" xmlns:xlink="http://www.w3.org/1999/xlink" xlink:href="#c" xlink:type="simple" xlink:actuate="onLoad" xlink:show="embed"/></g><g fill="#FF4858"><use x="167.405" y="85.578" xmlns:xlink="http://www.w3.org/1999/xlink" xlink:href="#d" xlink:type="simple" xlink:actuate="onLoad" xlink:show="embed"/></g><g fill="#FF4858"><use x="217.827" y="85.578" xmlns:xlink="http://www.w3.org/1999/xlink" xlink:href="#e" xlink:type="simple" xlink:actuate="onLoad" xlink:show="embed"/></g><g fill="#FF4858"><use x="239.977" y="85.578" xmlns:xlink="http://www.w3.org/1999/xlink" xlink:href="#f" xlink:type="simple" xlink:actuate="onLoad" xlink:show="embed"/></g><g clip-path="url(#g)"><g clip-path="url(#h)"><g clip-path="url(#i)"><path fill="#848484" d="M 304.207031 64.535156 L 304.296875 47.226562 C 304.304688 46.078125 305.234375 45.164062 306.382812 45.171875 L 361.460938 45.441406 C 362.609375 45.449219 363.527344 46.375 363.519531 47.523438 L 363.4375 64.824219 C 363.429688 65.972656 362.5 66.886719 361.351562 66.878906 L 306.273438 66.609375 C 305.125 66.601562 304.199219 65.667969 304.207031 64.535156 Z M 304.207031 64.535156"/></g></g></g><g clip-path="url(#j)"><g clip-path="url(#k)"><g clip-path="url(#l)"><path fill="#FF7B87" d="M 325.359375 26.367188 L 342.664062 26.457031 C 343.8125 26.464844 344.730469 27.390625 344.722656 28.539062 L 344.449219 83.621094 C 344.445312 84.769531 343.515625 85.683594 342.367188 85.675781 L 325.070312 85.59375 C 323.921875 85.585938 323.003906 84.660156 323.011719 83.511719 L 323.292969 28.421875 C 323.292969 27.28125 324.226562 26.355469 325.359375 26.367188 Z M 325.359375 26.367188"/></g></g></g><g clip-path="url(#m)"><g clip-path="url(#n)"><g clip-path="url(#o)"><path fill="#F4E4CD" d="M 341.976562 47.203125 L 341.882812 64.929688 C 341.882812 65.191406 341.667969 65.398438 341.417969 65.390625 L 326.53125 65.3125 C 326.273438 65.316406 326.0625 65.101562 326.070312 64.851562 L 326.160156 47.117188 C 326.160156 46.855469 326.371094 46.648438 326.625 46.65625 L 341.511719 46.734375 C 341.769531 46.734375 341.976562 46.945312 341.976562 47.203125 Z M 341.976562 47.203125"/></g></g></g><g clip-path="url(#p)"><g clip-path="url(#q)"><g clip-path="url(#r)"><path fill="#F4E4CD" d="M 328.742188 79.3125 C 328.898438 79.136719 329.089844 79.042969 329.324219 79.027344 C 329.554688 79.011719 329.757812 79.082031 329.933594 79.238281 C 330.109375 79.390625 330.203125 79.582031 330.21875 79.816406 C 330.234375 80.050781 330.164062 80.253906 330.011719 80.429688 C 329.855469 80.601562 329.664062 80.699219 329.429688 80.710938 C 329.199219 80.726562 328.992188 80.65625 328.820312 80.503906 C 328.644531 80.351562 328.546875 80.15625 328.535156 79.925781 C 328.519531 79.691406 328.589844 79.488281 328.742188 79.3125 Z M 328.742188 79.3125"/></g></g></g><g clip-path="url(#s)"><g clip-path="url(#t)"><g clip-path="url(#u)"><path fill="#F4E4CD" d="M 332.429688 75.65625 C 332.582031 75.480469 332.777344 75.386719 333.011719 75.371094 C 333.242188 75.359375 333.445312 75.425781 333.621094 75.582031 C 333.796875 75.734375 333.890625 75.929688 333.90625 76.160156 C 333.921875 76.394531 333.851562 76.597656 333.699219 76.773438 C 333.542969 76.949219 333.351562 77.042969 333.117188 77.058594 C 332.886719 77.074219 332.679688 77.003906 332.507812 76.847656 C 332.332031 76.695312 332.234375 76.5 332.222656 76.269531 C 332.207031 76.035156 332.277344 75.832031 332.429688 75.65625 Z M 332.429688 75.65625"/></g></g></g><g clip-path="url(#v)"><g clip-path="url(#w)"><g clip-path="url(#x)"><path fill="#F4E4CD" d="M 337.117188 77.546875 C 337.273438 77.375 337.464844 77.277344 337.699219 77.261719 C 337.929688 77.25 338.136719 77.316406 338.308594 77.472656 C 338.484375 77.625 338.578125 77.820312 338.59375 78.050781 C 338.609375 78.285156 338.539062 78.488281 338.386719 78.664062 C 338.230469 78.839844 338.039062 78.933594 337.804688 78.949219 C 337.574219 78.964844 337.371094 78.894531 337.195312 78.738281 C 337.019531 78.585938 336.925781 78.394531 336.910156 78.160156 C 336.894531 77.925781 336.964844 77.722656 337.117188 77.546875 Z M 337.117188 77.546875"/></g></g></g><g clip-path="url(#y)"><g clip-path="url(#z)"><g clip-path="url(#A)"><path fill="#F4E4CD" d="M 336.699219 71.722656 C 336.851562 71.546875 337.046875 71.453125 337.277344 71.4375 C 337.511719 71.421875 337.714844 71.492188 337.890625 71.644531 C 338.0625 71.800781 338.160156 71.992188 338.175781 72.226562 C 338.1875 72.457031 338.121094 72.664062 337.964844 72.835938 C 337.8125 73.011719 337.617188 73.109375 337.386719 73.121094 C 337.152344 73.136719 336.949219 73.066406 336.773438 72.914062 C 336.597656 72.761719 336.503906 72.566406 336.488281 72.332031 C 336.472656 72.101562 336.542969 71.898438 336.699219 71.722656 Z M 336.699219 71.722656"/></g></g></g><g clip-path="url(#B)"><g clip-path="url(#C)"><g clip-path="url(#D)"><path fill="#F4E4CD" d="M 329.625 71.125 C 329.78125 70.949219 329.972656 70.851562 330.207031 70.839844 C 330.4375 70.824219 330.640625 70.894531 330.816406 71.046875 C 330.992188 71.199219 331.085938 71.394531 331.101562 71.628906 C 331.117188 71.859375 331.046875 72.0625 330.894531 72.238281 C 330.738281 72.414062 330.546875 72.507812 330.3125 72.523438 C 330.082031 72.539062 329.878906 72.46875 329.703125 72.316406 C 329.527344 72.160156 329.433594 71.96875 329.417969 71.734375 C 329.402344 71.503906 329.472656 71.296875 329.625 71.125 Z M 329.625 71.125"/></g></g></g><g clip-path="url(#E)"><g clip-path="url(#F)"><g clip-path="url(#G)"><path fill="#F4E4CD" d="M 330.632812 40.339844 C 330.789062 40.164062 330.980469 40.066406 331.214844 40.054688 C 331.445312 40.039062 331.648438 40.109375 331.824219 40.261719 C 332 40.414062 332.09375 40.609375 332.109375 40.84375 C 332.125 41.074219 332.054688 41.277344 331.902344 41.453125 C 331.746094 41.628906 331.554688 41.722656 331.320312 41.738281 C 331.089844 41.753906 330.886719 41.683594 330.710938 41.53125 C 330.535156 41.375 330.441406 41.183594 330.425781 40.949219 C 330.410156 40.71875 330.480469 40.511719 330.632812 40.339844 Z M 330.632812 40.339844"/></g></g></g><g clip-path="url(#H)"><g clip-path="url(#I)"><g clip-path="url(#J)"><path fill="#F4E4CD" d="M 337.125 41.214844 C 337.277344 41.042969 337.472656 40.945312 337.703125 40.933594 C 337.9375 40.917969 338.140625 40.988281 338.316406 41.140625 C 338.492188 41.292969 338.585938 41.488281 338.601562 41.71875 C 338.617188 41.953125 338.546875 42.15625 338.394531 42.332031 C 338.238281 42.507812 338.046875 42.601562 337.8125 42.617188 C 337.578125 42.632812 337.375 42.5625 337.199219 42.410156 C 337.027344 42.253906 336.929688 42.0625 336.917969 41.828125 C 336.902344 41.59375 336.972656 41.390625 337.125 41.214844 Z M 337.125 41.214844"/></g></g></g><g clip-path="url(#K)"><g clip-path="url(#L)"><g clip-path="url(#M)"><path fill="#F4E4CD" d="M 334.886719 36.679688 C 335.039062 36.503906 335.234375 36.410156 335.464844 36.394531 C 335.699219 36.378906 335.902344 36.449219 336.078125 36.601562 C 336.253906 36.757812 336.347656 36.949219 336.363281 37.183594 C 336.378906 37.414062 336.308594 37.621094 336.15625 37.792969 C 336 37.96875 335.808594 38.0625 335.574219 38.078125 C 335.339844 38.09375 335.136719 38.023438 334.960938 37.871094 C 334.789062 37.714844 334.691406 37.523438 334.679688 37.289062 C 334.664062 37.058594 334.734375 36.855469 334.886719 36.679688 Z M 334.886719 36.679688"/></g></g></g><g clip-path="url(#N)"><g clip-path="url(#O)"><g clip-path="url(#P)"><path fill="#F4E4CD" d="M 328.972656 34.953125 C 329.125 34.78125 329.320312 34.683594 329.550781 34.671875 C 329.785156 34.65625 329.988281 34.726562 330.164062 34.878906 C 330.339844 35.03125 330.433594 35.226562 330.449219 35.457031 C 330.464844 35.691406 330.394531 35.894531 330.238281 36.070312 C 330.085938 36.246094 329.890625 36.339844 329.660156 36.355469 C 329.425781 36.371094 329.222656 36.300781 329.046875 36.144531 C 328.871094 35.992188 328.777344 35.800781 328.761719 35.566406 C 328.75 35.332031 328.816406 35.128906 328.972656 34.953125 Z M 328.972656 34.953125"/></g></g></g><g clip-path="url(#Q)"><g clip-path="url(#R)"><g clip-path="url(#S)"><path fill="#F4E4CD" d="M 333.503906 31.875 C 333.660156 31.699219 333.851562 31.605469 334.085938 31.589844 C 334.316406 31.578125 334.519531 31.644531 334.695312 31.800781 C 334.871094 31.953125 334.964844 32.148438 334.980469 32.378906 C 334.996094 32.613281 334.925781 32.816406 334.773438 32.992188 C 334.617188 33.167969 334.425781 33.261719 334.191406 33.277344 C 333.960938 33.292969 333.753906 33.222656 333.582031 33.066406 C 333.40625 32.914062 333.3125 32.71875 333.296875 32.488281 C 333.28125 32.253906 333.351562 32.050781 333.503906 31.875 Z M 333.503906 31.875"/></g></g></g><g clip-path="url(#T)"><g clip-path="url(#U)"><g clip-path="url(#V)"><path fill="#F4E4CD" d="M 339.714844 33.3125 C 339.871094 33.140625 340.0625 33.042969 340.296875 33.03125 C 340.527344 33.015625 340.734375 33.085938 340.90625 33.238281 C 341.082031 33.390625 341.179688 33.585938 341.191406 33.816406 C 341.207031 34.050781 341.136719 34.253906 340.984375 34.429688 C 340.828125 34.605469 340.636719 34.699219 340.402344 34.714844 C 340.171875 34.730469 339.96875 34.660156 339.792969 34.507812 C 339.617188 34.351562 339.523438 34.160156 339.507812 33.925781 C 339.492188 33.691406 339.5625 33.488281 339.714844 33.3125 Z M 339.714844 33.3125"/></g></g></g></svg>